<svg id="Capa_1" enable-background="new 0 0 512 512" height="512" viewBox="0 0 512 512" width="512" xmlns="http://www.w3.org/2000/svg"><g><g><path d="m504 309.294h-496v128.922c0 11.046 8.954 20 20 20h456c11.046 0 20-8.954 20-20z" fill="#ffba57"/><path d="m484 440.216h-456c-11.046 0-20-8.954-20-20v18c0 11.046 8.954 20 20 20h456c11.046 0 20-8.954 20-20v-18c0 11.046-8.954 20-20 20z" fill="#ffac3e"/><path d="m484 153.167c11.046 0 20 8.954 20 20v136.127h-496v-136.127c0-11.046 8.954-20 20-20z" fill="#ffe27a"/><path d="m8 291.294h496v18h-496z" fill="#f9cf58"/><g fill="#7b7179"><path d="m120.278 208.153c-12.745 0-23.078 10.332-23.078 23.077 0 12.745 10.332 23.077 23.078 23.077h22.838l-6.545-46.155h-16.293z"/><path d="m391.722 208.153h-16.293l-6.545 46.155h22.838c12.745 0 23.078-10.332 23.078-23.077 0-12.746-10.333-23.078-23.078-23.078z"/></g><path d="m120.278 236.308c-9.552 0-17.749-5.804-21.256-14.078-1.173 2.766-1.821 5.807-1.821 9 0 12.745 10.332 23.078 23.078 23.078h22.838l-2.552-18z" fill="#726a71"/><path d="m391.722 236.308h-20.286l-2.553 18h22.838c12.746 0 23.078-10.332 23.078-23.078 0-3.193-.649-6.234-1.821-9-3.507 8.274-11.704 14.078-21.256 14.078z" fill="#726a71"/><path d="m368.884 254.308 27-190.401s-29.349-6.735-58.53 6.086c-39.824 17.496-47.811-16.209-81.354-16.209s-41.53 33.705-81.353 16.209c-29.182-12.821-58.53-6.086-58.53-6.086l27 190.401z" fill="#f4e9d3"/><path d="m140.564 236.308 2.552 18h225.768l2.552-18z" fill="#e5d6be"/></g><path d="m484.446 145.451h-92.315l3.346-23.594c.582-4.11-2.276-7.913-6.385-8.496-4.101-.581-7.912 2.276-8.495 6.385l-18.017 127.044h-44.182l8.041-79.27c.419-4.129-2.589-7.816-6.718-8.235-4.124-.415-7.815 2.59-8.235 6.718l-8.195 80.787h-39.78v-111.535c0-4.15-3.364-7.515-7.514-7.515s-7.515 3.365-7.515 7.515v111.535h-39.779l-8.196-80.787c-.419-4.13-4.104-7.135-8.235-6.718-4.129.419-7.137 4.106-6.718 8.235l8.042 79.27h-44.177l-25.091-176.94c9.777-1.025 28.637-1.468 47.137 6.66 27.064 11.89 42.414 2.665 55.956-5.475 8.667-5.21 16.853-10.131 28.579-10.131s19.912 4.921 28.579 10.131c13.54 8.14 28.89 17.366 55.956 5.475 18.503-8.13 37.366-7.685 47.137-6.66l-2.853 20.119c-.582 4.109 2.276 7.912 6.385 8.495 4.116.588 7.912-2.276 8.495-6.386l3.898-27.492c.548-3.865-1.955-7.506-5.759-8.379-1.301-.298-32.191-7.148-63.348 6.542-11.58 5.088-19.946 8.761-42.168-4.596-9.574-5.755-20.427-12.279-36.322-12.279s-26.748 6.524-36.322 12.279c-12.903 7.756-22.224 13.359-42.168 4.596-31.16-13.69-62.048-6.84-63.348-6.542-3.805.873-6.307 4.514-5.759 8.38l11.467 80.864h-92.316c-15.193 0-27.554 12.36-27.554 27.553v265.569c0 15.193 12.361 27.554 27.554 27.554h298.176c4.151 0 7.515-3.365 7.515-7.515s-3.364-7.515-7.515-7.515h-298.176c-6.906 0-12.524-5.618-12.524-12.525v-121.66h112.836c4.15 0 7.515-3.365 7.515-7.515s-3.365-7.515-7.515-7.515h-112.837v-128.878c0-6.906 5.618-12.524 12.524-12.524h94.447l5.681 40.065h-7.67c-16.893 0-30.637 13.744-30.637 30.638 0 16.893 13.744 30.637 30.637 30.637h271.975c16.893 0 30.638-13.744 30.638-30.637s-13.745-30.637-30.638-30.637h-7.669l5.683-40.066h94.447c6.906 0 12.524 5.618 12.524 12.524v128.879h-339.046c-4.15 0-7.515 3.364-7.515 7.515s3.364 7.515 7.515 7.515h339.046v121.66c0 6.906-5.618 12.525-12.524 12.525h-128.658c-4.151 0-7.515 3.364-7.515 7.515s3.364 7.515 7.515 7.515h128.658c15.193 0 27.554-12.361 27.554-27.554v-265.57c-.001-15.193-12.362-27.553-27.555-27.553zm-380.042 85.731c0-8.606 7.002-15.608 15.608-15.608h9.801l4.427 31.216h-14.228c-8.606 0-15.608-7.002-15.608-15.608zm287.583-15.608c8.607 0 15.609 7.002 15.609 15.608s-7.002 15.608-15.609 15.608h-14.227l4.427-31.216z"/></g></svg>