<svg height="512pt" viewBox="0 -22 512.00103 512" width="512pt" xmlns="http://www.w3.org/2000/svg"><path d="m480.660156 110.285156h-174.679687v62.679688h174.679687c17.308594 0 31.339844-14.03125 31.339844-31.339844s-14.03125-31.339844-31.339844-31.339844zm0 0" fill="#ffbe73"/><path d="m65.773438 141.625v300.191406c0 15.808594 17.050781 25.738282 30.800781 17.941406l44.355469-25.148437 39.257812 24.476563c17.808594 11.101562 40.378906 11.101562 58.1875 0l39.261719-24.476563 44.351562 25.148437c13.75 7.796876 30.800781-2.132812 30.800781-17.941406v-300.191406zm0 0" fill="#59c2e8"/><path d="m65.773438 362.851562c27.957031-10.636718 73.257812-20.96875 143.507812-20.648437 77.839844.355469 120.632812-10.761719 143.503906-21.011719v-179.566406h-287.011718zm0 0" fill="#00aede"/><path d="m362.246094 0h-200.144532v283.25h200.144532c53.199218 0 96.324218-63.410156 96.324218-141.625 0-78.21875-43.125-141.625-96.324218-141.625zm0 0" fill="#91d4f2"/><path d="m258.429688 141.625c0-78.21875-43.128907-141.625-96.328126-141.625-53.199218 0-96.328124 63.40625-96.328124 141.625 0 78.214844 43.128906 141.625 96.328124 141.625 53.199219 0 96.328126-63.410156 96.328126-141.625zm0 0" fill="#c2eafb"/><path d="m198.40625 141.625c0-33.960938-16.253906-61.488281-36.304688-61.488281-20.050781 0-36.304687 27.527343-36.304687 61.488281s16.253906 61.488281 36.304687 61.488281c20.050782 0 36.304688-27.527343 36.304688-61.488281zm0 0" fill="#889cb0"/><path d="m198.40625 141.625c0-11.449219-1.84375-22.160156-5.0625-31.339844h-162.003906c-17.308594 0-31.339844 14.03125-31.339844 31.339844s14.03125 31.339844 31.339844 31.339844h162.003906c3.21875-9.179688 5.0625-19.890625 5.0625-31.339844zm0 0" fill="#ffbe73"/><g fill="#454545"><path d="m425.386719 162.902344c-4.265625 0-7.722657-3.460938-7.722657-7.726563v-12.828125c0-4.265625 3.457032-7.726562 7.722657-7.726562 4.269531 0 7.726562 3.460937 7.726562 7.726562v12.828125c0 4.265625-3.457031 7.726563-7.726562 7.726563zm0 0"/><path d="m298.042969 162.902344c-4.265625 0-7.722657-3.460938-7.722657-7.726563v-12.828125c0-4.265625 3.457032-7.726562 7.722657-7.726562 4.269531 0 7.726562 3.460937 7.726562 7.726562v12.828125c0 4.265625-3.457031 7.726563-7.726562 7.726563zm0 0"/><path d="m377.207031 157.796875c0-10.898437-6.9375-19.734375-15.488281-19.734375-8.554688 0-15.492188 8.835938-15.492188 19.734375s6.9375 19.730469 15.492188 19.730469c8.550781 0 15.488281-8.832032 15.488281-19.730469zm0 0"/></g></svg>