<svg id="Capa_1" enable-background="new 0 0 512.375 512.375" height="512" viewBox="0 0 512.375 512.375" width="512" xmlns="http://www.w3.org/2000/svg"><g><g><g><path d="m373.33 409.934s24.616-37.138 24.616-59.428l1.405-106.451.595-45.128v-47.668c0-79.396-64.363-143.759-143.758-143.759-79.396 0-143.759 64.363-143.759 143.759v199.248c0 22.29 8.855 43.667 24.616 59.428l30.568 18.602 167.101 2.568h19.69z" fill="#9b8e99"/></g><path d="m221.931 427.548-30.568-18.602c-15.761-15.761-24.616-37.138-24.616-59.428v-199.247c0-69.197 48.907-126.974 114.028-140.676-7.985-1.376-16.208-2.095-24.587-2.095-79.396 0-143.759 64.363-143.759 143.759v199.248c0 22.29 8.855 43.667 24.616 59.428l30.568 18.602 167.101 2.568h19.69l1.341-1.5z" fill="#8b8089"/><path d="m132.323 245.983h31.768v-55.337h-31.768c-15.281 0-27.668 12.388-27.668 27.668-.001 15.281 12.387 27.669 27.668 27.669z" fill="#eb9c8d"/><path d="m380.052 245.983h-33.768v-55.337h33.768c15.281 0 27.669 12.388 27.669 27.668 0 15.281-12.388 27.669-27.669 27.669z" fill="#eb9c8d"/><path d="m373.238 409.845-84.31-46.5-12.65-5.68h-11.956l-123.484 60.577-11.209 34.115s1.023 37.866 1.358 52.518h253.939c3.933 0 7.122-3.188 7.122-7.122v-56.048c-.001-13.26-7.201-25.46-18.81-31.86z" fill="#fec165"/><path d="m231.363 373.833v-15.563l-9.916 5.074-84.31 46.5c-11.61 6.4-18.81 18.6-18.81 31.86v56.048c0 3.933 3.189 7.122 7.122 7.122h20.298v-42.518c0-13.26 7.2-25.46 18.81-31.86l74.805-41.258v-19.331z" fill="#fdb441"/><path d="m288.927 363.345-12.65-5.68h-6.344c-21.918 11.46-60.836 30.995-76.451 38.812 7.116 27.428 32.079 47.738 61.704 47.738 35.15 0 63.74-28.59 63.74-63.74v-.58z" fill="#fdb441"/><path d="m231.363 313.488v84.154l24.149 16.567c18.485-.175 33.417-15.208 33.417-33.734v-31.537-35.45z" fill="#f1b0a2"/><path d="m223.255 362.42-1.807.925-30 16.546v.584c0 6.757 1.066 13.268 3.022 19.384h-.001c1.278 3.99 2.935 7.812 4.934 11.419l30.899-17.042z" fill="#fea613"/><path d="m269.202 411.172c-9.555-5.958-15.928-16.562-15.928-28.651v-32.053-34.934h-11.885v-2.046h-19.944v34.934 32.053c0 18.636 15.107 33.743 33.743 33.743 3.472 0 6.82-.526 9.972-1.5-.013-.004.013.004 0 0 1.395-.431 2.729-.946 4.042-1.546z" fill="#eb9c8d"/><path d="m365.873 178.928v64.147c0 60.691-49.2 109.891-109.891 109.891-60.691 0-109.891-49.2-109.891-109.891v-93.529c0-4.912 3.982-8.894 8.894-8.894h44.665c49.197 0 97.163-15.384 137.184-43.997 18.791 23.303 29.039 52.337 29.039 82.273z" fill="#f1b0a2"/><g><path d="m290.278 346.47c-60.691 0-109.891-49.2-109.891-109.891v-93.529c0-.833.123-1.635.336-2.398h-25.739c-4.912 0-8.894 3.982-8.894 8.894v93.529c0 60.691 49.2 109.891 109.891 109.891 13.143 0 25.758-2.311 37.44-6.543-1.039.029-2.095.047-3.143.047z" fill="#eb9c8d"/></g><g id="XMLID_433_"><g><path d="m319.967 239.715c7.15 18.05 6.21 36.09-.4 54.12-.4 1.12-1.16 2.08-2.14 2.75-39.39 26.85-80.47 27.14-123.3.04-1.09-.69-1.93-1.74-2.35-2.96-6.56-19.19-6.8-37.18-.36-53.91.61-1.58 1.87-2.83 3.46-3.39 40.68-14.23 81.23-14.39 121.67.01 1.57.56 2.801 1.79 3.42 3.34z" fill="#9cf8d2"/></g></g><path d="m314.645 298.436c-38.537 24.99-78.699 24.648-120.517-1.811-1.09-.69-1.93-1.74-2.35-2.96-6.56-19.19-6.8-37.18-.36-53.91.61-1.58 1.87-2.83 3.46-3.39 8.618-3.015 17.229-5.391 25.836-7.138-2.458 7.688-1.926 20.399-.752 31.323 1.369 12.743 9.985 23.546 22.142 27.605 20.81 6.949 53.709 15.849 72.541 10.281z" fill="#6cf5c2"/></g><g><path d="m227.229 164.979c-13.674-12.069-28.733-12.07-42.407 0-3.105 2.741-3.401 7.48-.66 10.586 1.482 1.68 3.549 2.537 5.626 2.537 1.764 0 3.534-.618 4.96-1.877 8.012-7.072 14.545-7.07 22.555 0 3.104 2.741 7.846 2.447 10.586-.66 2.741-3.105 2.445-7.845-.66-10.586z"/><path d="m169.884 471.731c-4.143 0-7.5 3.357-7.5 7.5v25.644c0 4.143 3.357 7.5 7.5 7.5s7.5-3.357 7.5-7.5v-25.644c0-4.142-3.358-7.5-7.5-7.5z"/><path d="m340.491 471.731c-4.143 0-7.5 3.357-7.5 7.5v25.644c0 4.143 3.357 7.5 7.5 7.5s7.5-3.357 7.5-7.5v-25.644c0-4.142-3.357-7.5-7.5-7.5z"/><path d="m206.097 185.085c-4.143 0-7.5 3.357-7.5 7.5v8.729c0 4.143 3.357 7.5 7.5 7.5s7.5-3.357 7.5-7.5v-8.729c0-4.143-3.358-7.5-7.5-7.5z"/><path d="m294.072 176.225c8.01-7.069 14.545-7.071 22.555 0 1.426 1.259 3.196 1.877 4.96 1.877 2.077 0 4.144-.857 5.626-2.537 2.741-3.105 2.445-7.845-.66-10.586-13.675-12.068-28.735-12.066-42.406 0-3.105 2.741-3.401 7.48-.66 10.586 2.741 3.104 7.48 3.401 10.585.66z"/><path d="m305.278 185.085c-4.143 0-7.5 3.357-7.5 7.5v8.729c0 4.143 3.357 7.5 7.5 7.5s7.5-3.357 7.5-7.5v-8.729c0-4.143-3.357-7.5-7.5-7.5z"/><path d="m397.946 282.137c4.143 0 7.5-3.357 7.5-7.5v-32.03c6.047-6.319 9.774-14.876 9.774-24.292 0-8.33-2.917-15.987-7.774-22.019v-45.037c0-83.405-67.854-151.259-151.258-151.259s-151.259 67.854-151.259 151.259v45.037c-4.858 6.032-7.774 13.689-7.774 22.019 0 8.47 3.011 16.25 8.017 22.327-.153.597-.243 1.22-.243 1.864v108.001c0 21.487 7.358 41.841 20.874 58.195-9.4 8.232-14.98 20.207-14.98 32.999v63.174c0 4.143 3.357 7.5 7.5 7.5s7.5-3.357 7.5-7.5v-63.174c0-10.342 5.539-19.872 14.479-25.018.327-.158.646-.337.952-.546l43.653-24.074c2.308 14.044 8.775 27.104 18.807 37.599 1.474 1.541 3.446 2.317 5.423 2.317 1.863 0 3.729-.689 5.182-2.078 2.994-2.862 3.101-7.61.239-10.604-9.191-9.615-14.598-21.945-15.472-35.053l14.858-8.194v4.425c0 22.741 18.502 41.242 41.243 41.242s41.243-18.501 41.243-41.242v-4.425l14.859 8.194c-1.948 29.26-26.358 52.474-56.102 52.474-5.422 0-10.813-.788-16.027-2.341-3.975-1.185-8.146 1.076-9.329 5.046s1.076 8.146 5.046 9.329c6.604 1.968 13.438 2.966 20.311 2.966 35.336 0 64.731-25.864 70.284-59.652l43.642 24.067c.311.212.634.394.967.554 8.935 5.147 14.471 14.675 14.471 25.014v63.174c0 4.143 3.357 7.5 7.5 7.5s7.5-3.357 7.5-7.5v-63.174c0-12.792-5.58-24.768-14.98-33 13.516-16.354 20.874-36.708 20.874-58.195v-43.906c0-4.143-3.357-7.5-7.5-7.5s-7.5 3.357-7.5 7.5v43.906c0 18.563-6.582 36.104-18.61 49.999l-75.406-41.585v-5.638c39.208-14.436 68.648-49.233 75.445-91.503.023-.116.041-.232.058-.349.413-2.622.736-5.272.972-7.948h7.146c3.617 0 7.108-.55 10.395-1.569v22.723c0 4.143 3.358 7.501 7.5 7.501zm-141.758-267.137c75.134 0 136.259 61.125 136.259 136.259v34.148c-3.857-1.458-8.033-2.262-12.395-2.262h-6.68v-4.218c0-31.54-10.903-62.431-30.701-86.981-2.493-3.093-6.969-3.707-10.2-1.393-38.976 27.867-84.904 42.598-132.821 42.598h-44.664c-9.04 0-16.395 7.354-16.395 16.395v33.6h-6.268c-4.362 0-8.537.804-12.395 2.262v-34.148c.001-75.135 61.126-136.26 136.26-136.26zm-144.034 203.314c0-11.121 9.048-20.169 20.169-20.169h6.268v40.337h-6.268c-11.121 0-20.169-9.046-20.169-20.168zm41.437 24.761v-26.848l29.126 25.805c-3.122 10.082-4.142 20.646-3.042 31.61l-25.301-17.897c-.514-4.152-.783-8.38-.783-12.67zm38.809-13.786c-.338.119-.662.264-.987.408l-37.823-33.51v-5.542-41.1c0-.769.626-1.395 1.395-1.395h44.664c48.63 0 95.343-14.239 135.561-41.247 14.981 20.909 23.162 46.223 23.162 72.023v17.575l-38.325 33.215c-.324-.146-.647-.292-.984-.412-41.672-14.839-84.285-14.847-126.663-.015zm136.334 12.75 29.638-25.686v26.722c0 4.382-.278 8.701-.815 12.94l-25.583 17.685c1.113-10.874.024-21.455-3.24-31.661zm-190.195 158.466c-12.028-13.896-18.61-31.436-18.61-49.999v-99.286c3.857 1.458 8.033 2.262 12.395 2.262h6.734c4.007 45.392 33.954 83.442 74.887 99.195v6.242zm116.649 6.212c-14.471 0-26.243-11.772-26.243-26.242v-17.156c0-.015 0-.029 0-.043v-5.958c8.683 2.055 17.735 3.148 27.037 3.148 8.737 0 17.252-.967 25.449-2.787v5.596.043 17.156c0 14.47-11.773 26.243-26.243 26.243zm.793-61.251c-44.246 0-82.023-28.212-96.298-67.591l24.78 17.529c.077.229.142.456.22.685.969 2.829 2.899 5.272 5.438 6.878 4.524 2.862 9.178 5.504 13.832 7.854 3.697 1.864 8.207.384 10.075-3.315 1.866-3.697.383-8.208-3.315-10.075-4.044-2.042-8.093-4.33-12.043-6.807-5.793-17.285-5.965-32.822-.524-47.45 38.536-13.305 77.257-13.307 115.113-.009 5.749 14.975 5.576 30.543-.529 47.546-24.33 16.442-48.474 21.931-73.789 16.784-4.068-.828-8.02 1.795-8.845 5.854s1.796 8.02 5.854 8.845c6.983 1.42 13.939 2.129 20.865 2.129 22.078 0 43.81-7.207 64.837-21.54 2.264-1.544 4.026-3.805 4.963-6.365.125-.341.23-.68.351-1.02l25.301-17.489c-14.283 39.361-52.052 67.557-96.286 67.557zm117.803-106.984v-40.337h6.268c11.121 0 20.169 9.048 20.169 20.169s-9.048 20.168-20.169 20.168z"/></g></g></svg>