<svg height="496pt" viewBox="-48 0 496 496" width="496pt" xmlns="http://www.w3.org/2000/svg"><path d="m288 344 54.390625 12.550781c29.042969 6.707031 49.609375 32.5625 49.609375 62.359375v69.089844h-384v-69.089844c0-29.796875 20.566406-55.652344 49.609375-62.359375l54.390625-12.550781" fill="#b8cbd9"/><path d="m310.390625 356.550781-54.390625-12.550781h-144l-54.390625 12.550781c-29.042969 6.707031-49.609375 32.5625-49.609375 62.359375v69.089844h352v-69.089844c0-29.796875-20.566406-55.652344-49.609375-62.359375zm0 0" fill="#e8eff4"/><path d="m264 328-56 56 32 32 48-72zm0 0" fill="#b8cbd9"/><path d="m136 328 56 56-32 32-48-72zm0 0" fill="#b8cbd9"/><path d="m216 488-8-64h-16l-8 64" fill="#758190"/><path d="m160 304-8 40 48 48 48-48-8-40" fill="#efbe9a"/><path d="m224 400-24 32-24-32 24-24zm0 0" fill="#8892a0"/><path d="m336 200v-104c0-30.929688-25.070312-56-56-56h-.449219c-17.574219-19.640625-43.117187-32-71.550781-32h-48c-53.015625 0-96 42.984375-96 96v96" fill="#976947"/><path d="m96 168c-17.671875 0-32 14.328125-32 32s14.328125 32 32 32" fill="#db9b7c"/><path d="m304 168c17.671875 0 32 14.328125 32 32s-14.328125 32-32 32" fill="#efbe9a"/><path d="m304 88-26.542969 9.953125c-24.769531 9.285156-51.007812 14.046875-77.457031 14.046875s-52.6875-4.761719-77.457031-14.046875l-26.542969-9.953125v120c0 57.441406 46.558594 104 104 104s104-46.558594 104-104zm0 0" fill="#db9b7c"/><path d="m188 311.257812c51.777344-5.960937 92-49.882812 92-103.257812v-111l-2.542969.953125c-24.769531 9.285156-51.007812 14.046875-77.457031 14.046875s-52.6875-4.761719-77.457031-14.046875l-26.542969-9.953125v120c0 53.375 40.222656 97.296875 92 103.257812zm0 0" fill="#efbe9a"/><path d="m264 216c0 26.511719-28.65625 64-64 64s-64-37.488281-64-64 28.65625-32 64-32 64 5.488281 64 32zm0 0" fill="#b8cbd9"/><path d="m232.15625 305.574219 15.6875-3.136719 8 40-15.6875 3.140625zm0 0"/><path d="m144.136719 342.441406 8.007812-40 15.6875 3.144532-8.007812 39.996093zm0 0"/><path d="m152 168c-8.824219 0-16-7.175781-16-16s7.175781-16 16-16 16 7.175781 16 16-7.175781 16-16 16zm0-16.007812"/><path d="m248 168c-8.824219 0-16-7.175781-16-16s7.175781-16 16-16 16 7.175781 16 16-7.175781 16-16 16zm0-16.007812"/><path d="m240 424c-2.113281 0-4.152344-.832031-5.65625-2.34375l-32-32c-3.128906-3.128906-3.128906-8.183594 0-11.3125l56-56c2.695312-2.695312 6.914062-3.128906 10.097656-1l24 16c3.671875 2.457031 4.664063 7.417969 2.214844 11.097656l-48 72c-1.328125 1.992188-3.488281 3.285156-5.863281 3.519532-.273438.023437-.527344.039062-.792969.039062zm-20.6875-40 19.449219 19.449219 38.148437-57.226563-11.886718-7.917968zm0 0"/><path d="m160 424c-.265625 0-.519531-.015625-.792969-.039062-2.382812-.234376-4.535156-1.527344-5.863281-3.519532l-48-72c-2.449219-3.679687-1.457031-8.640625 2.214844-11.097656l24-16c3.167968-2.121094 7.394531-1.695312 10.097656 1l56 56c3.128906 3.128906 3.128906 8.183594 0 11.3125l-32 32c-1.503906 1.511719-3.542969 2.34375-5.65625 2.34375zm-36.902344-77.785156 38.148438 57.226562 19.441406-19.441406-45.703125-45.703125zm0 0"/><path d="m200 440c-2.519531 0-4.886719-1.183594-6.398438-3.199219l-24-32 12.796876-9.59375 17.601562 23.464844 17.601562-23.464844 12.796876 9.59375-24 32c-1.511719 2.015625-3.878907 3.199219-6.398438 3.199219zm0 0"/><path d="m176.0625 486.988281 8-64 15.875 1.984375-7.996094 63.996094zm0 0"/><path d="m200.054688 425.011719 15.875-1.984375 7.996093 64-15.875 1.984375zm0 0"/><path d="m392 496h-384c-4.414062 0-8-3.574219-8-8v-69.089844c0-33.726562 22.953125-62.574218 55.816406-70.15625l54.382813-12.554687 3.601562 15.59375-54.394531 12.550781c-25.558594 5.894531-43.40625 28.335938-43.40625 54.566406v61.089844h368v-61.089844c0-26.230468-17.847656-48.671875-43.40625-54.558594l-54.394531-12.550781 3.601562-15.59375 54.390625 12.554688c32.855469 7.574219 55.808594 36.421875 55.808594 70.148437v69.089844c0 4.425781-3.585938 8-8 8zm0 0"/><path d="m304 240v-16c13.230469 0 24-10.769531 24-24s-10.769531-24-24-24v-16c22.054688 0 40 17.945312 40 40s-17.945312 40-40 40zm0 0"/><path d="m96 240c-22.054688 0-40-17.945312-40-40s17.945312-40 40-40v16c-13.230469 0-24 10.769531-24 24s10.769531 24 24 24zm0 0"/><path d="m200 288c-38.777344 0-72-39.585938-72-72 0-40 50.457031-40 72-40s72 0 72 40c0 32.414062-33.222656 72-72 72zm0-96c-49.34375 0-56 12.136719-56 24 0 22.121094 25.089844 56 56 56s56-33.878906 56-56c0-11.863281-6.65625-24-56-24zm0 0"/><path d="m90.878906 166.152344 10.242188-12.292969 47.996094 40-10.242188 12.292969zm0 0"/><path d="m107.214844 265.601562 31.996094-24.007812 9.605468 12.796875-31.996094 24.007813zm0 0"/><path d="m250.882812 193.847656 48.011719-39.988281 10.238281 12.296875-48.007812 39.984375zm0 0"/><path d="m251.199219 254.398438 9.601562-12.796876 32 24-9.601562 12.796876zm0 0"/><path d="m344 200h-16v-104c0-26.472656-21.527344-48-48-48-2.28125 0-4.886719-.96875-6.40625-2.664062-16.683594-18.640626-40.59375-29.335938-65.59375-29.335938h-48c-48.519531 0-88 39.480469-88 88v96h-16v-96c0-57.34375 46.65625-104 104-104h48c28.375 0 55.558594 11.65625 75.136719 32.097656 34.054687 1.839844 60.863281 29.796875 60.863281 63.902344zm0 0"/><path d="m200 320c-61.761719 0-112-50.238281-112-112v-120c0-2.625 1.289062-5.078125 3.441406-6.574219 2.160156-1.496093 4.917969-1.839843 7.367188-.914062l26.542968 9.953125c47.894532 17.96875 101.390626 17.96875 149.289063 0l26.542969-9.953125c2.457031-.925781 5.207031-.574219 7.367187.914062 2.160157 1.496094 3.449219 3.949219 3.449219 6.574219v120c0 61.761719-50.238281 112-112 112zm-96-220.457031v108.457031c0 52.9375 43.0625 96 96 96s96-43.0625 96-96v-108.457031l-15.734375 5.898437c-51.503906 19.3125-109.027344 19.3125-160.523437 0zm0 0"/></svg>