<?xml version="1.0"?>
<svg xmlns="http://www.w3.org/2000/svg" id="filled_outline" data-name="filled outline" viewBox="0 0 512 512" width="512" height="512"><path d="M256,208H369.6a64,64,0,0,1,56.47059,33.88235l38.4,72A63.99992,63.99992,0,0,1,472,344v.00008A63.99994,63.99994,0,0,1,408.00006,408H384v80H256Z" style="fill:#02c26a"/><polygon points="256 272 384 352 384 488 256 488 256 272" style="fill:#00b55b"/><path d="M256,208H142.4a64,64,0,0,0-56.47059,33.88235l-38.4,72A63.99992,63.99992,0,0,0,40,344v.00008A63.99994,63.99994,0,0,0,103.99994,408H128v80H256Z" style="fill:#02c26a"/><polygon points="256 272 128 352 128 488 256 488 256 272" style="fill:#00b55b"/><path d="M360,288V127.9999A103.9999,103.9999,0,0,0,256.0001,24h-.0002A103.9999,103.9999,0,0,0,152,127.9999V287.99523Z" style="fill:#b1712c"/><path d="M200,128h20.91872A63.63246,63.63246,0,0,0,280,88l0,0,3.29322,16.46609A29.27526,29.27526,0,0,0,312,128h0v40.00006A55.99994,55.99994,0,0,1,256.00006,224h-.00012A55.99994,55.99994,0,0,1,200,168.00006Z" style="fill:#ffceb6"/><path d="M308.01253,243.9624,320,208l-38.87126-25.91417A36.236,36.236,0,0,0,261.02861,176h0a36.236,36.236,0,0,0-31.46168,18.25792L139.42857,352h82.63031a24,24,0,0,0,16.97055-7.02943l0,0a24,24,0,0,1,33.9411,0l0,0A24,24,0,0,0,289.94112,352H344Z" style="fill:#d1e4ff"/><path d="M144,296l-32,32v80h12.32633a56,56,0,0,0,44.484-21.98279L207.36319,335.602Z" style="fill:#02c26a"/><path d="M368,296l32,32v80H387.67367a56,56,0,0,1-44.484-21.98279L304.63681,335.602Z" style="fill:#02c26a"/><path d="M207.36319,335.602l44.62016-58.34945A19.53222,19.53222,0,0,0,256,265.38769v0a19.53222,19.53222,0,0,0-7.33054-15.2521l-22.46561-17.97249a20.423,20.423,0,0,0-21.8916-2.3192h0a20.423,20.423,0,0,0-7.205,6.0131L176,264l-4.07612-12.22837a10.76174,10.76174,0,0,0-15.02228-6.22243h0a10.76174,10.76174,0,0,0-5.80252,7.85637L144,296l63.36318,39.602Z" style="fill:#ffceb6"/><path d="M304.63681,335.602l-44.62016-58.34945A19.53222,19.53222,0,0,1,256,265.38769v0a19.53222,19.53222,0,0,1,7.33054-15.2521l22.46561-17.97249a20.423,20.423,0,0,1,21.8916-2.3192h0a20.423,20.423,0,0,1,7.205,6.0131L336,264l4.07612-12.22837a10.76174,10.76174,0,0,1,15.02228-6.22243h0a10.76174,10.76174,0,0,1,5.80252,7.85637L368,296l-63.36318,39.602Z" style="fill:#ffceb6"/><circle cx="232" cy="152" r="8"/><circle cx="280" cy="152" r="8"/><path d="M128,496H384a8.00039,8.00039,0,0,0,8-8V416h16a71.99942,71.99942,0,0,0,63.5293-105.88184l-38.40039-72A71.86753,71.86753,0,0,0,369.59961,200H368V128a112,112,0,0,0-224,0v72h-1.59961a71.86753,71.86753,0,0,0-63.5293,38.11816l-38.40039,72A71.99942,71.99942,0,0,0,104,416h16v72A8.00039,8.00039,0,0,0,128,496Zm8-16V414.89331A64.41817,64.41817,0,0,0,175.165,390.877L198.77686,360h23.28173a31.79072,31.79072,0,0,0,22.62793-9.37207,15.9989,15.9989,0,0,1,22.627,0A31.79072,31.79072,0,0,0,289.94141,360h23.28173L336.835,390.877A64.41817,64.41817,0,0,0,376,414.89331V480Zm22.98926-225.27832a2.77322,2.77322,0,0,1,1.49023-2.01758,2.76171,2.76171,0,0,1,3.85449,1.59766l4.07618,12.22851a8.00086,8.00086,0,0,0,13.99023,2.26953l21.10742-28.14355a12.38976,12.38976,0,0,1,12.29419-4.731l-14.22876,19.1958,12.85352,9.52735,14.73291-19.876,6.27124,5.01685-13.79126,18.6062,12.85351,9.52734,12.59717-16.99512a11.48017,11.48017,0,0,1-1.46142,11.46582L205.43115,324.96l-52.66162-32.91333Zm194.02051-.001,6.2207,37.32593L306.56885,324.96l-40.19776-52.56641a11.48017,11.48017,0,0,1-1.46142-11.46582l12.59717,16.99512,12.85351-9.52734-13.79126-18.6062,6.27124-5.01685,14.73291,19.876,12.85352-9.52735L296.198,235.92529a12.38749,12.38749,0,0,1,12.29419,4.73194l21.10742,28.14257a8.00086,8.00086,0,0,0,13.99023-2.26953l4.0752-12.22851a2.76242,2.76242,0,0,1,3.85449-1.59766A2.76854,2.76854,0,0,1,353.00977,254.7207ZM231.20215,225.916a28.25162,28.25162,0,0,0-7.96314-4.45948l13.27466-23.23a28.23581,28.23581,0,0,1,40.17774-9.48437l33.78711,22.52441L307.2168,221.051a28.51775,28.51775,0,0,0-26.41895,4.865l-22.22827,17.78344a41.79939,41.79939,0,0,1,1.48511-33.92016l3.10058-6.20118-14.31054-7.15624-3.10059,6.20117a57.69272,57.69272,0,0,0-5.89673,30.20923ZM304,168a48.0288,48.0288,0,0,1-3.323,17.50293l-15.10962-10.07324a44.23647,44.23647,0,0,0-62.94629,14.85937l-4.27124,7.47437A47.575,47.575,0,0,1,208,168V136H220.919a71.27,71.27,0,0,0,55.47558-26.24512A37.44764,37.44764,0,0,0,304,135.12793ZM256,285.16943,300.98779,344H289.94141a15.891,15.891,0,0,1-11.31348-4.68652,32.00248,32.00248,0,0,0-45.25586,0A15.891,15.891,0,0,1,222.05859,344H211.01221ZM369.59961,216a55.8987,55.8987,0,0,1,49.41211,29.64746l38.40039,72A56.0002,56.0002,0,0,1,408,400H387.67383A48.28648,48.28648,0,0,1,349.544,381.1582l-33.21216-43.43115L366.843,306.15747l27.49975,27.49976,11.31446-11.31446-30.1875-30.18652L368.792,252.08887a18.636,18.636,0,0,0-.792-3.0774V216ZM256,32a96.10874,96.10874,0,0,1,96,96V236.51709a18.67625,18.67625,0,0,0-18.66016,10.604L321.293,231.05859c-.12354-.16479-.25781-.32129-.38477-.48315l6.68164-20.04517a8.00033,8.00033,0,0,0-3.15234-9.18652l-10.19873-6.79932A64.00606,64.00606,0,0,0,320,168V128a8.00039,8.00039,0,0,0-8-8,21.33353,21.33353,0,0,1-20.8623-17.10352l-3.293-16.46582a7.99983,7.99983,0,0,0-15.27246-1.40136A55.366,55.366,0,0,1,220.919,120H200a8.00039,8.00039,0,0,0-8,8v40a63.47432,63.47432,0,0,0,17.96655,44.43408l-4.8728,8.52686a28.16456,28.16456,0,0,0-4.35937,1.72754,28.55356,28.55356,0,0,0-10.02735,8.36914l-12.04687,16.06347A18.67705,18.67705,0,0,0,160,236.51685V128A96.10874,96.10874,0,0,1,256,32ZM48,344a56.19792,56.19792,0,0,1,6.58789-26.35254l38.40039-72A55.8987,55.8987,0,0,1,142.40039,216H144v33.01025a18.63355,18.63355,0,0,0-.793,3.07959l-6.67676,40.06641-30.1875,30.18652,11.31446,11.31446L145.157,306.15747l50.51123,31.56958L162.45605,381.1582A48.28648,48.28648,0,0,1,124.32617,400H104A56.0629,56.0629,0,0,1,48,344Z"/></svg>
