<svg height="512" viewBox="0 0 60 56" width="512" xmlns="http://www.w3.org/2000/svg"><g id="002---Give-Women's-Rights" fill="none"><g id="Icons_copy" transform="translate(1 1)"><g fill="#e8edfc"><path id="Shape" d="m18.12 30.14-5.2 4.91c-1.5028606 1.4144738-3.82407665 1.4876783-5.41307904.1707131-1.5890024-1.3169652-1.94788768-3.6114377-.83692096-5.3507131.17633957-.2852865.39176523-.5444705.64-.77l5.2-4.91c1.0602571-1.0172784 2.5848081-1.3874682 3.9935211-.9697026 1.4087129.4177657 2.4849656 1.5592458 2.8192152 2.9900768.3342497 1.430831-.1249023 2.9309897-1.2027363 3.9296258z"/><path id="Shape" d="m23.73 36.08-5.2 4.91c-1.0610788 1.00213-2.576186 1.3620576-3.9745955.9442014s-2.4676694-1.5500139-2.805-2.9700001c-.3373307-1.4199862.1085166-2.9120713 1.1695955-3.9142013l5.2-4.91c1.6402857-1.5491587 4.2258413-1.4752857 5.775.165s1.4752857 4.2258413-.165 5.775z"/><path id="Shape" d="m29.34 42.03-5.2 4.91c-1.0602571 1.0172784-2.5848081 1.3874682-3.9935211.9697026-1.4087129-.4177657-2.4849656-1.5592458-2.8192152-2.9900768-.3342497-1.430831.1249023-2.9309897 1.2027363-3.9296258l5.2-4.91c1.6463506-1.5253788 4.2144987-1.4386381 5.7541737.1943505s1.4753288 4.2017954-.1441737 5.7556495z"/><path id="Shape" d="m36.07 46.14c-.2034666.7018419-.5900251 1.3369023-1.12 1.84l-5.2 4.91c-1.0602571 1.0172784-2.5848081 1.3874682-3.9935211.9697026-1.4087129-.4177657-2.4849656-1.5592458-2.8192152-2.9900768-.3342497-1.430831.1249023-2.9309897 1.2027363-3.9296258l5.2-4.91c1.3406114-1.2644922 3.3616458-1.4753779 4.9344244-.5148847 1.5727785.9604933 2.3082078 2.8547469 1.7955756 4.6248847z"/></g><path id="Shape" d="m41.68 40.22-13.33-14.12" fill="#a4c2f7"/><path id="Shape" d="m41.68 40.22-13.33-14.12" fill="#a4c2f7"/><path id="Shape" d="m47.62 34.61-13.32-14.12" fill="#a4c2f7"/><path id="Shape" d="m47.62 34.61-13.32-14.12" fill="#a4c2f7"/><path id="Shape" d="m57.99 16.84c-.1233456 4.3324311-1.9655132 8.4377304-5.12 11.41l-15.46-16.38c-.3644104-.3863519-.8675254-.6118977-1.398409-.626905-.5308837-.0150073-1.0459368.1817564-1.431591.546905l-7.47 7.04c-.9830407.9301028-2.295841 1.4307124-3.6485819 1.3913122s-2.6341787-.6155701-3.5614181-1.6013122c-.5630447-.5873787-.8658194-1.3767556-.84-2.19.0289667-.8111638.3734098-1.578985.96-2.14l8.92-8.42 1.49-1.41c4.8125311-4.53551526 11.8831166-5.72588924 17.9154256-3.01616554 6.032309 2.70972369 9.8386817 8.78604634 9.6445744 15.39616554z" fill="#e8edfc"/><path id="Shape" d="m53.54 5.14c-3.4525582-3.66307502-8.4028512-5.52709247-13.414-5.051 6.010581.53530643 11.2351693 4.34376623 13.5841677 9.90216918 2.3489985 5.55840292 1.4389499 11.95937942-2.3661677 16.64283082l1.526 1.616c6.5650865-6.1973432 6.8650174-16.5427187.67-23.11z" fill="#cad9fc"/><path id="Shape" d="m34.41 11.87c-.3644104-.3863519-.8675254-.6118977-1.398409-.626905-.5308837-.0150073-1.0459368.1817564-1.431591.546905l-7.47 7.04c-.5655575.5312824-1.2467923.9239338-1.99 1.147 1.7483047.5497419 3.6572133.1109607 4.99-1.147l7.34-6.917z" fill="#cad9fc"/><path id="Shape" d="m54.68 31.92c-.0504633 1.6514803-1.0891591 3.1105748-2.6331329 3.6988594s-3.2902465.1903184-4.4268671-1.0088594c1.5491587 1.6402857 1.4752857 4.2258413-.165 5.775s-4.2258413 1.4752857-5.775-.165c1.1341859 1.2021569 1.4326979 2.9690844.7563824 4.4771149-.6763156 1.5080305-2.1943197 2.460294-3.8463824 2.4128851-.9263419-.0249793-1.8159877-.3674224-2.52-.97.5126322-1.7701378-.2227971-3.6643914-1.7955756-4.6248847-1.5727786-.9604932-3.593813-.7496075-4.9344244.5148847 1.6195025-1.5538541 1.6838487-4.1226609.1441737-5.7556495s-4.1078231-1.7197293-5.7541737-.1943505c1.6402857-1.5491587 1.7141587-4.1347143.165-5.775s-4.1347143-1.7141587-5.775-.165c1.077834-.9986361 1.536986-2.4987948 1.2027363-3.9296258-.3342496-1.430831-1.4105023-2.5723111-2.8192152-2.9900768-1.408713-.4177656-2.933264-.0475758-3.9935211.9697026l-5.2 4.91c-.24823477.2255295-.46366043.4847135-.64.77l-.11-.07-2.1-2.23c-6.19663473-6.5666657-5.89666544-16.913365.67000017-23.10999982 6.56666563-6.19663483 16.91336493-5.89666569 23.10999983.66999982l.7.74-8.92 8.42c-.5865902.561015-.9310333 1.3288362-.96 2.14-.0258194.8132444.2769553 1.6026213.84 2.19.9272394.9857421 2.2086772 1.561912 3.5614181 1.6013122s2.6655412-.4612094 3.6485819-1.3913122l7.47-7.04c.3856542-.3651486.9007073-.5619123 1.431591-.546905.5308836.0150073 1.0339986.2405531 1.398409.626905l15.46 16.38.7.74c.7433086.7911997 1.1424908 1.8448968 1.11 2.93z" fill="#a4c2f7"/><path id="Shape" d="m44.62 34.61c.9329045.9815113 1.3162589 2.3628852 1.0225913 3.6847908-.2936677 1.3219056-1.2258542 2.4110259-2.4865913 2.9052092 1.5306245.6107791 3.2785668.2367416 4.4252003-.9469366s1.4649222-2.9426264.8057997-4.4530634c-1.3768462.279195-2.8004099-.1705105-3.767-1.19z" fill="#7facfa"/><path id="Shape" d="m53.57 28.99-.7-.74-15.46-16.38c-.3644104-.3863519-.8675254-.6118977-1.398409-.626905-.5308837-.0150073-1.0459368.1817564-1.431591.546905l-.13.123 15.42 16.337.7.74c.7433086.7911997 1.1424908 1.8448968 1.11 2.93-.044686 1.6314796-1.0605713 3.0781318-2.58 3.674 1.7786405.6976114 3.8032602.0698882 4.8752899-1.5115592 1.0720297-1.5814475.9053813-3.6945849-.4012899-5.0884408z" fill="#7facfa"/><path id="Shape" d="m38.68 40.22c.9345295.9838558 1.3177158 2.3685058 1.0219496 3.6928321-.2957662 1.3243262-1.2316378 2.4143866-2.4959496 2.9071679.4404448.177974.9091386.2758443 1.384.289 1.395008.0421067 2.7144405-.6329809 3.4964489-1.7889581.7820084-1.1559771.9176899-2.631862.3595511-3.9110419-1.3763597.2792757-2.7995178-.1700432-3.766-1.189z" fill="#7facfa"/></g><path id="Shape" d="m11.469 34.6c-1.043-1.061-2.161-2.879-1.981-4.435.018-.149.416-1.536.572-1.458l-.121-.067c-1.407-1.5-2.2-2.338-2.1-2.23-9.586-10.139-1.257-25.186 10.966-26.337-13.799-1.232-24.325 15.379-13.966 26.34.526.556 1.577 1.67 2.1 2.23l.121.067c-.42773387.6543133-.65727459 1.4182915-.661 2.2.001.773 1.161 2.42 1.601 3.09 1.05721067 1.6465264 3.1333225 2.3124253 4.951 1.588-.231.091-1.206-.704-1.482-.988z" fill="#fff" transform="translate(0 1)"/><g id="Layer_11" transform="translate(0 -1)"><path id="Shape" d="m2.805 13.451-1.895-.637c.9252339-2.6876026 2.47860829-5.11554286 4.531-7.082l1.373 1.455c-1.81406505 1.74062148-3.18819847 3.8876835-4.009 6.264z" fill="#fff"/><g fill="#428dff"><path id="Shape" d="m3.6 10.522c-.55228475 0-1-.4477153-1-1 0-.55228475.44771525-1 1-1s1 .44771525 1 1c0 .5522847-.44771525 1-1 1z"/><path id="Shape" d="m55.267 6.451c-3.1554558-3.35211626-7.5148869-5.3111371-12.1165923-5.44489779s-9.067568 1.56872974-12.4124077 4.73189779l-.759.717c-3.155105-3.35501418-7.5154774-5.31677308-12.1189988-5.45241355-4.6035213-.13564048-9.07183358 1.56598561-12.4190012 4.72941355-.40178716.37914348-.42014348 1.01221284-.041 1.414s1.01221284.42014348 1.414.041c2.96196755-2.79802657 6.9153712-4.30277898 10.9881711-4.18233967s7.930377 1.85617513 10.7218289 4.82433967l-8.19 7.734c-.7843745.7398088-1.2421666 1.7613008-1.2723712 2.8390986-.0302046 1.0777977.3696606 2.123325 1.1113712 2.9059014 1.1092784 1.1801044 2.6427593 1.8700012 4.2616815 1.9172854 1.6189222.0472843 3.1900546-.5519354 4.3663185-1.6652854l7.464-7.044c.1927817-.1822656.4500905-.2804541.7152872-.2729521s.5165432.1200796.6987128.3129521c20.414 21.634 14.27 15.192 15.472 16.393.773.821 1.565 1.486 1.534 2.934-.0351941 1.2489181-.8190356 2.3537426-1.9862053 2.7995563-1.1671697.4458138-2.4879578.1448765-3.3467947-.7625563l-13.326-14.12c-.3791435-.4017871-1.0122128-.4201434-1.414-.0409999-.4017871.3791434-.4201434 1.0122127-.041 1.4139999l13.329 14.119c.7572244.8020612 1.0290341 1.9471708.7130408 3.003977-.3159932 1.0568062-1.1717823 1.8647551-2.245 2.1195-1.0732176.254745-2.2008164-.0824158-2.9580408-.884477l-13.328-14.121c-.2452628-.2599107-.6105557-.369232-.9582764-.2867835s-.6250422.3441408-.7275.6865c-.1024579.3423592-.0144864.7133728.2307764.9732835l13.324 14.117c1.0524439 1.1136771 1.1272529 2.831276.1756218 4.0322394-.951631 1.2009634-2.6408531 1.5207623-3.9656218.7507606.2302885-1.5615553-.2862414-3.1406021-1.3948759-4.2641756s-2.6806264-1.6611918-4.2451241-1.4518244c.304751-1.5905314-.1728894-3.2306517-1.2839613-4.4088633-1.1110719-1.1782115-2.7203811-1.7511505-4.3260387-1.5401367.3044006-1.5899415-.1735989-3.2293172-1.2848212-4.4064997-1.1112222-1.1771825-2.7203437-1.7488157-4.3251788-1.5365003.3960364-2.1595814-.6401557-4.3292028-2.5687527-5.3785598-1.9285971-1.0493569-4.3130958-.7409462-5.9112473.7645598-7.15 6.749-4.683 4.423-5.216 4.926l-1.419-1.5c-3.88474505-4.1295014-5.18387989-10.0607186-3.381-15.436.12570825-.3416234.05584878-.7245721-.18238917-.9998026-.23823794-.2752305-.60721781-.3992623-.96333288-.3238222s-.6431067.338434-.74927795.6866248c-2.04033401 6.0752029-.57141321 12.7802768 3.822 17.446l1.708 1.811c-.72160926 1.6707444-.49100043 3.6002404.60402603 5.0538647 1.09502647 1.4536244 2.88597573 2.2077038 4.69097397 1.9751353-.3055963 1.5905926.1720173 3.2311243 1.2836411 4.4091167 1.1116239 1.1779925 2.7217354 1.7498317 4.3273589 1.5368833-.3056119 1.5903264.17189 3.2306135 1.2833306 4.4084235s2.7213086 1.7495397 4.3266694 1.5365765c-.3977455 2.159889.6375285 4.3308072 2.5662286 5.3812539 1.9287001 1.0504466 4.3140443.7425329 5.9127714-.7632539 5.62-5.3 5.523-5.109 6.068-6.029 1.6687135.8220213 3.6542888.6596906 5.1673271-.4224548s2.3083221-2.9087227 2.0696729-4.7535452c1.5902839.29806 3.2271413-.183293 4.40292-1.2947727 1.1757786-1.1114798 1.7483285-2.7187102 1.54008-4.3232273 2.1723134.3982161 4.3530355-.6527161 5.3950232-2.5999663 1.0419877-1.9472501.706484-4.344633-.8300232-5.9310337 6.3317641-6.6685744 6.3401106-17.1253262.019-23.804zm-46.401 29.749c-1.16834353-1.2413826-1.11199041-3.1940627.126-4.366l5.2-4.91c1.2434509-1.1485232 3.1797539-1.0819347 4.3413661.1492975 1.1616122 1.2312323 1.1155097 3.1681312-.1033661 4.3427025l-5.2 4.91c-1.2404948 1.1686738-3.1930008 1.1122999-4.364-.126zm5.611 5.946c-1.1694565-1.2409595-1.1130772-3.1945493.126-4.366l5.2-4.91c1.2401554-1.1700152 3.1939847-1.1131553 4.3639999.1270001 1.1700153 1.2401553 1.1131555 3.1939846-.1269999 4.3639999l-5.2 4.911c-1.2419354 1.1661242-3.193265 1.1075351-4.363-.131zm5.61 5.945c-1.1679654-1.2413158-1.1111609-3.1936907.127-4.365l5.2-4.91c1.2480734-1.0957063 3.13936-1.0075892 4.2801476.1994167 1.1407875 1.207006 1.1221636 3.1002527-.0421476 4.2845833l-5.2 4.91c-1.2396529 1.1709893-3.1938231 1.1154756-4.365-.124zm9.975 6.072c-.8022399.7570458-1.9474192 1.0285951-3.0041601.7123579-1.0567408-.3162372-1.8644991-1.172217-2.119-2.2455-.254501-1.0732831.0829202-2.2008121.8851601-2.9578579l5.2-4.911c1.2434509-1.1485232 3.1797539-1.0819347 4.3413661.1492975 1.1616122 1.2312323 1.1155097 3.1681312-.1033661 4.3427025zm23.824-25.346-14.753-15.634c-.5462023-.5785892-1.2998837-.9164935-2.095232-.9393732-.7953483-.0228796-1.5672081.2711398-2.145768.8173732l-7.465 7.046c-.7927943.7483465-1.8509894 1.1501315-2.9406761 1.116542-1.0896866-.0335894-2.1211264-.4997871-2.8663239-1.295542-.3751748-.3977504-.5766463-.9284488-.5599487-1.4749675.0166976-.5465188.2501916-1.0639278.6489487-1.4380325 2.6-2.453-6.036 5.7 10.4-9.823 6.0221873-5.7093776 15.491337-5.59974131 21.3797183.24753997 5.8883812 5.84728123 6.0643386 15.31543083.3972817 21.37746003z"/></g></g></g></svg>