<?xml version="1.0" encoding="iso-8859-1"?>
<!-- Generator: Adobe Illustrator 19.0.0, SVG Export Plug-In . SVG Version: 6.00 Build 0)  -->
<svg version="1.1" id="Capa_1" xmlns="http://www.w3.org/2000/svg" xmlns:xlink="http://www.w3.org/1999/xlink" x="0px" y="0px"
	 viewBox="0 0 512 512" style="enable-background:new 0 0 512 512;" xml:space="preserve">
<path style="fill:#FEC478;" d="M335.501,301.3L255.7,228.1h11.7c12.001,0,23.399-4.801,31.8-13.2l16.8-16.8l4.501-4.501
	c9.3-9.3,2.699-25.499-10.801-25.499H226h-41.4c-16.934,0-32.427,9.527-40.068,24.639l-13.632,26.96
	c-2.605,5.152-7.888,8.401-13.661,8.401H61v210h98.699l42.601,42.599c8.699,8.699,20.099,13.2,31.8,13.2c4.499,0,9-0.601,13.499-2.1
	L376,438.1L335.501,301.3z"/>
<path style="fill:#17ACE8;" d="M91,438.1H15c-8.284,0-15-6.716-15-15v-180c0-8.284,6.716-15,15-15h76V438.1z"/>
<path style="fill:#AA3DC8;" d="M497,438.1H391l-29.992-30v-150l29.992-30h106c8.284,0,15,6.716,15,15v180
	C512,431.384,505.284,438.1,497,438.1z"/>
<path style="fill:#FEDBAB;" d="M214.545,228.1c-11.366,0-21.756,6.421-26.838,16.587l-45.671,91.343
	c9.667,4.214,20.01,5.816,30.53,4.689c21.31-2.285,39.261-17.18,48.846-36.35l8.134-16.269h44.033c7.896,0,15.63,3.208,21.211,8.789
	L361,429.468c2.47,5.268,9.182,8.632,15,8.632h45v-210L214.545,228.1L214.545,228.1z"/>
<g>
	<path style="fill:#1DE8F1;" d="M271,33.1v45c0,8.399-6.599,15-15,15s-15-6.601-15-15v-45c0-8.401,6.599-15,15-15
		S271,24.699,271,33.1z"/>
	<path style="fill:#1DE8F1;" d="M155.395,133.706l-30-30c-5.859-5.859-5.859-15.352,0-21.211c5.859-5.859,15.352-5.859,21.211,0
		l30,30c5.859,5.859,5.859,15.352,0,21.211C170.746,139.565,161.254,139.565,155.395,133.706z"/>
</g>
<g>
	<path style="fill:#1BD9DE;" d="M335.395,133.706c-5.859-5.859-5.859-15.352,0-21.211l30-30c5.859-5.859,15.352-5.859,21.211,0
		c5.859,5.859,5.859,15.352,0,21.211l-30,30C350.746,139.565,341.254,139.565,335.395,133.706z"/>
	<path style="fill:#1BD9DE;" d="M271,33.1v45c0,8.399-6.599,15-15,15v-75C264.401,18.1,271,24.699,271,33.1z"/>
</g>
<g>
</g>
<g>
</g>
<g>
</g>
<g>
</g>
<g>
</g>
<g>
</g>
<g>
</g>
<g>
</g>
<g>
</g>
<g>
</g>
<g>
</g>
<g>
</g>
<g>
</g>
<g>
</g>
<g>
</g>
</svg>
