<svg id="Layer_1" enable-background="new 0 0 512 512" height="512" viewBox="0 0 512 512" width="512" xmlns="http://www.w3.org/2000/svg" xmlns:xlink="http://www.w3.org/1999/xlink"><linearGradient id="SVGID_1_" gradientUnits="userSpaceOnUse" x1="0" x2="512" y1="256" y2="256"><stop offset="0" stop-color="#80d8ff"/><stop offset="1" stop-color="#ea80fc"/></linearGradient><path d="m401.974 299.769-84-62.788c-6.063-4.531-14.165-5.251-20.933-1.862-6.768 3.39-11.041 10.311-11.041 17.881v43.023h-60v-43.023c0-7.57-4.273-14.491-11.042-17.881-6.767-3.391-14.87-2.669-20.933 1.862l-84 62.788c-5.042 3.77-8.016 9.692-8.026 15.987s2.944 12.228 7.974 16.013l84 63.212c3.534 2.659 7.767 4.02 12.028 4.02 3.043 0 6.101-.694 8.927-2.104 6.785-3.386 11.072-10.316 11.072-17.897v-42.977h60v42.977c0 7.581 4.287 14.511 11.07 17.896 2.827 1.411 5.883 2.104 8.927 2.104 4.261 0 8.495-1.36 12.028-4.02l84-63.212c5.03-3.785 7.984-9.718 7.974-16.013s-2.983-12.217-8.025-15.986zm-215.974 39.15-30.667-23.077 30.667-22.923zm140 0v-46l30.667 22.923zm-229-198.919c38.598 0 70-31.402 70-70s-31.402-70-70-70-70 31.402-70 70 31.402 70 70 70zm0-100c16.542 0 30 13.458 30 30s-13.458 30-30 30-30-13.458-30-30 13.458-30 30-30zm-20 315v137c0 11.046-8.954 20-20 20s-20-8.954-20-20v-117h-17c-11.046 0-20-8.954-20-20v-169c0-11.046 8.954-20 20-20h154c11.046 0 20 8.954 20 20s-8.954 20-20 20h-134v129h17c11.046 0 20 8.954 20 20zm80 65v72c0 11.046-8.954 20-20 20s-20-8.954-20-20v-72c0-11.046 8.954-20 20-20s20 8.954 20 20zm258-280c38.598 0 70-31.402 70-70s-31.402-70-70-70-70 31.402-70 70 31.402 70 70 70zm0-100c16.542 0 30 13.458 30 30s-13.458 30-30 30-30-13.458-30-30 13.458-30 30-30zm-20 380v72c0 11.046-8.954 20-20 20s-20-8.954-20-20v-72c0-11.046 8.954-20 20-20s20 8.954 20 20zm117-234v169c0 11.046-8.954 20-20 20h-17v117c0 11.046-8.954 20-20 20s-20-8.954-20-20v-137c0-11.046 8.954-20 20-20h17v-129h-134c-11.046 0-20-8.954-20-20s8.954-20 20-20h154c11.046 0 20 8.954 20 20z" fill="url(#SVGID_1_)"/></svg>