<svg id="Layer_1" enable-background="new 0 0 512 512" height="512" viewBox="0 0 512 512" width="512" xmlns="http://www.w3.org/2000/svg"><path d="m216.745 107.428c-3.159 20.605-12.76 36.022-25.761 47.814-23.614 16.191-22.384 15.732-52.991 28.44-10.347 3.434-20.674 6.167-30.269 8.565 5.791 99.458 70.397 260.324 149.247 260.324 73.571 0 134.743-141.009 147.307-239.688-132.376-22.931-187.533-105.455-187.533-105.455zm68.304 244.864c-8.989 4.466-19.823-4.557-43.617.297-5.339 1.089-10.869 1.498-14.481-.297-11.756-5.841-3.421-16.84 4.838-33.203 7.494-14.848 9.728-40.777 10.38-56.752.317-7.769 6.418-13.886 13.831-13.886s13.514 6.117 13.831 13.886c.652 15.974 2.886 41.904 10.38 56.752 8.259 16.363 16.594 27.362 4.838 33.203z" fill="#8bc4ff"/><g fill="#2e58ff"><path d="m256 0c-110.832 0-201 94.402-201 210.438v219.259c0 21.05 16.494 38.176 36.769 38.176h102.065v36.127c0 4.418 3.582 8 8 8h108.333c4.418 0 8-3.582 8-8v-36.127h102.065c20.274 0 36.769-17.125 36.769-38.176v-219.259c-.001-116.036-90.169-210.438-201.001-210.438zm0 16c102.009 0 185 87.225 185 194.438v37.883c-6.094-11.867-17.488-20.36-30.876-22.058.799-4.815 1.498-9.554 2.089-14.196.541-4.244-2.354-8.163-6.57-8.893-66.405-11.504-112.396-38.604-139.283-59.313-29.187-22.48-42.836-42.516-42.964-42.705-4.046-6.055-13.455-3.965-14.559 3.233-2.64 17.22-10.238 31.319-23.228 43.101-3.273 2.968-3.52 8.028-.551 11.3 2.968 3.273 8.028 3.519 11.3.551 11.305-10.254 19.417-22.359 24.235-36.126 37.826 42.84 99.119 79.619 174.71 94.327-9.671 64.822-43.327 160.249-91.524 203.761-32.439 29.356-63.972 28.516-96.425-2.434-50.34-47.995-85.472-152.999-91.182-222.34 7.524-1.95 15.854-4.263 24.34-7.08 4.193-1.392 6.464-5.92 5.073-10.113-1.392-4.194-5.922-6.463-10.113-5.073-10.515 3.49-20.908 6.203-29.688 8.396-3.731.932-6.271 4.387-6.047 8.227.655 11.246 2.01 23.06 3.982 35.19-14.181 1.119-26.347 9.839-32.719 22.247v-37.883c0-107.215 82.991-194.44 185-194.44zm151.195 226.026c12.612 1.094 22.562 12.374 22.562 26.082 0 14.43-11.024 26.169-24.575 26.169h-11.799c5.682-17.586 10.33-35.251 13.812-52.251zm-286.823 52.25h-13.555c-13.551 0-24.575-11.739-24.575-26.169 0-14.359 10.917-26.052 24.377-26.166 3.489 17.254 8.135 34.918 13.753 52.335zm-28.603 157.597c-11.452 0-20.769-9.948-20.769-22.176v-141.803c6.832 13.304 20.322 22.382 35.817 22.382h19.015c14.563 40.404 37.428 87.27 68.001 117.65v23.947zm210.398 44.127h-92.333c0-11.428 0-41.923 0-54.195 30.05 21.891 61.635 22.792 92.333 1.284zm118.064-44.127h-102.064v-22.24c28.762-27.864 52.842-72.481 69.748-119.357h17.268c15.496 0 28.985-9.078 35.817-22.382v141.803c0 12.228-9.317 22.176-20.769 22.176z"/><path d="m223.391 357.629c12.239 6.08 22.867-3.66 45.579.971 6.382 1.302 13.826 1.917 19.64-.971 4.887-2.428 8.08-5.882 9.489-10.267 3.212-9.995-4.12-20.581-10.744-33.706-5.154-10.212-8.538-29.203-9.529-53.474-.494-12.089-10.081-21.56-21.825-21.56s-21.331 9.47-21.825 21.56c-.991 24.271-4.375 43.261-9.528 53.473-6.618 13.108-13.958 23.709-10.745 33.706 1.409 4.386 4.601 7.84 9.488 10.268zm15.54-36.763c7.896-15.646 10.466-41.28 11.231-60.029.143-3.484 2.707-6.213 5.838-6.213s5.696 2.729 5.838 6.212c.765 18.75 3.334 44.384 11.231 60.03 3.894 7.716 10.276 18.636 9.808 21.531-3.37 3.522-12.242-1.114-26.877-1.114-14.623 0-23.509 4.634-26.877 1.114-.468-2.892 5.886-13.762 9.808-21.531z"/><path d="m256 197.281c4.418 0 8-3.582 8-8v-13.417c0-4.418-3.582-8-8-8s-8 3.582-8 8v13.417c0 4.419 3.582 8 8 8z"/><path d="m256 231.768c4.418 0 8-3.582 8-8v-13.417c0-4.418-3.582-8-8-8s-8 3.582-8 8v13.417c0 4.418 3.582 8 8 8z"/><path d="m256 365.154c-4.418 0-8 3.582-8 8v13.417c0 4.418 3.582 8 8 8s8-3.582 8-8v-13.417c0-4.418-3.582-8-8-8z"/><path d="m256 400.162c-4.418 0-8 3.582-8 8v13.417c0 4.418 3.582 8 8 8s8-3.582 8-8v-13.417c0-4.419-3.582-8-8-8z"/><path d="m167.178 177.737c4.418 0 8-3.582 8-8s-3.582-8-8-8c-4.54 0-8.013 3.667-8.013 8 0 4.418 3.594 8 8.013 8z"/></g></svg>