<svg id="Layer_1" enable-background="new 0 0 496 496" height="512" viewBox="0 0 496 496" width="512" xmlns="http://www.w3.org/2000/svg"><path d="m386.309 496h-276.618l6.508-56.101c4.088-35.239 33.953-61.824 69.454-61.824h124.695c35.501 0 65.366 26.585 69.454 61.824z" fill="#71ddff"/><path d="m116.198 459.506c4.088-35.239 33.953-61.824 69.454-61.824h124.695c35.501 0 65.367 26.585 69.454 61.824l4.234 36.494h2.274l-6.508-56.101c-4.088-35.239-33.953-61.824-69.454-61.824h-124.695c-35.501 0-65.367 26.585-69.454 61.824l-6.507 56.101h2.274z" fill="#b3eeff"/><path d="m165.326 457.077c-4.418 0-8 3.582-8 8v30.923h16v-30.923c0-4.419-3.582-8-8-8z" fill="#55caff"/><path d="m330.674 457.077c-4.418 0-8 3.582-8 8v30.923h16v-30.923c0-4.419-3.582-8-8-8z" fill="#55caff"/><path d="m378.931 47.702c-40.413-49.787-85.003-21.242-85.003-21.242-46.951-45.56-155.366-35.471-183.219 55.288-28.576 93.117 20.627 126.805 29.029 138.387l211.566 8.277c40.786-10.631 62.8-137.378 27.627-180.71z" fill="#786e80"/><path d="m110.709 96.264c16.668-54.313 62.188-79.737 106.121-81.633 6.226-.269 15.494 5.813 21.569 6.474 4.705.512 6.265-4.58 10.787-3.526 14.544 3.387 27.704 11.912 38.534 21.343 3.475 3.026 8.42 3.627 12.58 1.645 14.005-6.672 47.642-16.524 78.63 21.652 11.152 13.739 16.549 35.867 17.427 60.017 1.034-29.589-4.069-58.077-17.427-74.534-40.413-49.787-85.003-21.242-85.003-21.242-46.95-45.56-155.365-35.471-183.218 55.288-7.327 23.876-9.532 43.836-8.631 60.526.698-13.444 3.318-28.698 8.631-46.01z" fill="#9e91a8"/><path d="m125.002 220.135h28.353v-63.676h-28.353c-16.57 0-30.002 13.423-30.002 29.981v3.715c0 16.557 13.432 29.98 30.002 29.98z" fill="#dc8098"/><path d="m132.14 220.135h21.215v-47.646h-21.215c-12.398 0-22.449 10.044-22.449 22.433v2.779c0 12.39 10.051 22.434 22.449 22.434z" fill="#ce6a98"/><path d="m370.998 156.459h-28.353v63.676h28.353c16.57 0 30.002-13.423 30.002-29.981v-3.715c0-16.557-13.432-29.98-30.002-29.98z" fill="#dc8098"/><path d="m363.86 220.135h-21.215v-47.646h21.215c12.398 0 22.449 10.044 22.449 22.433v2.779c0 12.39-10.051 22.434-22.449 22.434z" fill="#ce6a98"/><path d="m248 414.426c-17.614 0-31.93-14.265-31.93-31.908v-59.951h63.861v59.951c-.001 17.622-14.296 31.908-31.931 31.908z" fill="#eca298"/><path d="m279.93 363.217v-40.649h-63.86v40.649c4.413.272 60.236.223 63.86 0z" fill="#dc8098"/><path d="m362.001 124.867s20.415 218.334-86.752 218.334h-54.5c-107.166 0-86.752-218.334-86.752-218.334s52.921 19.698 74.632-29.115c1.571-3.531 6.142-4.522 8.99-1.907 16.364 15.02 66.044 51.63 144.382 31.022z" fill="#eca298"/><path d="m249.142 210.714c-37.299 0-86.557 9.561-116.832 31.118-2.804 1.997-4.097 5.502-3.236 8.834l4.721 18.263c1.066 4.122 5.084 6.766 9.295 6.115 51.007-7.886 99.958-17.359 173.719-5.72l36.081 5.693c4.218.666 8.252-1.98 9.32-6.111l4.715-18.24c.861-3.332-.431-6.837-3.236-8.834-11.966-8.521-47.902-29.404-114.547-31.118z" fill="#c5ecff"/><g fill="#804e5f"><path d="m198.231 187.502c-4.54 0-8.025-3.667-8.025-8 0-4.418 3.582-8 8-8s8.013 3.582 8.013 8-3.57 8-7.988 8z"/><path d="m172.836 173.458c-7.46 0-10.878-9.404-5.08-14.204.741-.615 18.533-14.982 48.463-8.607 4.321.92 7.079 5.169 6.158 9.491-.921 4.321-5.169 7.076-9.49 6.158-22.02-4.69-34.474 4.922-34.991 5.334-1.486 1.231-3.278 1.828-5.06 1.828z"/><path d="m297.794 187.502c-4.418 0-8.013-3.582-8.013-8s3.569-8 7.987-8c4.54 0 8.025 3.667 8.025 8 .001 4.418-3.581 8-7.999 8z"/><path d="m323.138 173.417c-1.775 0-3.561-.587-5.043-1.794-.655-.515-13.088-9.988-34.981-5.326-4.32.92-8.569-1.837-9.49-6.158-.921-4.322 1.837-8.571 6.158-9.491 29.938-6.375 47.721 7.992 48.463 8.607 5.769 4.777 2.354 14.162-5.107 14.162z"/><path d="m228.405 310.477c-4.072-1.713-5.984-6.404-4.271-10.477 1.714-4.072 6.401-5.985 10.477-4.271 8.51 3.58 18.27 3.58 26.779 0 4.076-1.714 8.763.199 10.477 4.271 1.713 4.073-.199 8.763-4.271 10.477-12.453 5.238-26.737 5.239-39.191 0z"/></g><path d="m221.869 22.435c0 3.868-9.225 3.868-9.225 0s9.225-3.867 9.225 0z" fill="#9e91a8"/></svg>