<svg id="Layer_1" enable-background="new 0 0 512 512" height="512" viewBox="0 0 512 512" width="512" xmlns="http://www.w3.org/2000/svg"><g><g><path d="m256 190.659h-160.666c-8.284 0-15-6.708-15-14.992v-.017c0-52.647 42.585-95.316 95.317-95.316 52.763 0 95.349 42.66 95.349 95.316 0 8.285-6.715 15.009-15 15.009z" fill="#ffd321"/><path d="m175.667 80.334v110.325h80.333c8.284 0 15-6.725 15-15.009 0-52.651-42.577-95.307-95.333-95.316z" fill="#ff8e00"/><ellipse cx="175.667" cy="55.167" fill="#ffdcd2" rx="55.167" ry="55.167" transform="matrix(.16 -.987 .987 .16 93.074 219.729)"/><path d="m175.667 110.334v-110.334c30.419 0 55.167 24.748 55.167 55.167s-24.748 55.167-55.167 55.167z" fill="#ffc3be"/><path d="m416.667 190.659h-160.667c-8.284 0-15-6.708-15-14.992v-.017c0-52.647 42.585-95.316 95.317-95.316 52.763 0 95.349 42.66 95.349 95.316.001 8.285-6.715 15.009-14.999 15.009z" fill="#beeb00"/><path d="m336.334 80.334v110.325h80.333c8.284 0 15-6.725 15-15.009 0-52.651-42.578-95.307-95.333-95.316z" fill="#6ed200"/><ellipse cx="336.334" cy="55.167" fill="#ffdcd2" rx="55.167" ry="55.167" transform="matrix(.16 -.987 .987 .16 228.004 378.321)"/><path d="m336.333 110.334v-110.334c30.419 0 55.167 24.748 55.167 55.167s-24.748 55.167-55.167 55.167z" fill="#ffc3be"/></g><path d="m175.667 351.326h-160.667c-8.284 0-15-6.708-15-14.992v-.017c0-52.647 42.585-95.316 95.317-95.316 52.763 0 95.349 42.66 95.349 95.316.001 8.285-6.715 15.009-14.999 15.009z" fill="#6ed2ff"/><path d="m95.333 241.001v110.325h80.333c8.284 0 15-6.725 15-15.009.001-52.651-42.577-95.307-95.333-95.316z" fill="#46a0ff"/><ellipse cx="95.333" cy="215.834" fill="#ffdcd2" rx="55.167" ry="55.167" transform="matrix(.16 -.987 .987 .16 -132.985 275.363)"/><path d="m95.333 271.001v-110.334c30.419 0 55.167 24.748 55.167 55.167s-24.748 55.167-55.167 55.167z" fill="#ffc3be"/><path d="m336.333 351.326h-160.666c-8.284 0-15-6.708-15-14.992v-.017c0-52.647 42.585-95.316 95.317-95.316 52.763 0 95.349 42.66 95.349 95.316 0 8.285-6.716 15.009-15 15.009z" fill="#3246d2"/><path d="m256 241.001v110.325h80.333c8.284 0 15-6.725 15-15.009 0-52.651-42.578-95.307-95.333-95.316z" fill="#141e96"/><ellipse cx="256" cy="215.834" fill="#ffdcd2" rx="55.167" ry="55.167" transform="matrix(.16 -.987 .987 .16 1.946 433.955)"/><path d="m256 271.001v-110.334c30.419 0 55.167 24.748 55.167 55.167s-24.749 55.167-55.167 55.167z" fill="#ffc3be"/><path d="m497 351.326h-160.667c-8.284 0-15-6.708-15-14.992v-.017c0-52.647 42.585-95.316 95.317-95.316 52.763 0 95.349 42.66 95.349 95.316.001 8.285-6.715 15.009-14.999 15.009z" fill="#ff8e00"/><path d="m416.667 241.001v110.325h80.333c8.284 0 15-6.725 15-15.009 0-52.651-42.578-95.307-95.333-95.316z" fill="#ff4d05"/><ellipse cx="416.667" cy="215.834" fill="#ffdcd2" rx="55.167" ry="55.167" transform="matrix(.16 -.987 .987 .16 136.877 592.548)"/><path d="m416.667 271.001v-110.334c30.419 0 55.167 24.748 55.167 55.167s-24.749 55.167-55.167 55.167z" fill="#ffc3be"/><g><path d="m256 512h-160.667c-8.284 0-15-6.708-15-14.992v-.017c0-52.647 42.585-95.316 95.317-95.316 52.763 0 95.349 42.66 95.349 95.316.001 8.284-6.715 15.009-14.999 15.009z" fill="#ff4d05"/><path d="m175.667 401.675v110.325h80.333c8.284 0 15-6.725 15-15.009 0-52.651-42.578-95.307-95.333-95.316z" fill="#d0004f"/><ellipse cx="175.667" cy="376.508" fill="#ffdcd2" rx="55.167" ry="55.167" transform="matrix(.16 -.987 .987 .16 -224.118 489.596)"/><path d="m175.667 431.675v-110.334c30.419 0 55.167 24.748 55.167 55.167s-24.749 55.167-55.167 55.167z" fill="#ffc3be"/><path d="m416.667 512h-160.667c-8.284 0-15-6.708-15-14.992v-.017c0-52.647 42.585-95.316 95.317-95.316 52.763 0 95.349 42.66 95.349 95.316.001 8.284-6.715 15.009-14.999 15.009z" fill="#46a0ff"/><path d="m336.333 401.675v110.325h80.333c8.284 0 15-6.725 15-15.009.001-52.651-42.577-95.307-95.333-95.316z" fill="#5073ff"/><ellipse cx="336.333" cy="376.508" fill="#ffdcd2" rx="55.167" ry="55.167" transform="matrix(.16 -.987 .987 .16 -89.188 648.188)"/><path d="m336.333 431.675v-110.334c30.419 0 55.167 24.748 55.167 55.167s-24.748 55.167-55.167 55.167z" fill="#ffc3be"/></g><path d="m505.87 420.637-481.998-353.465c-6.681-4.899-16.067-3.455-20.967 3.226-4.899 6.68-3.455 16.067 3.226 20.966l481.998 353.465c6.681 4.899 16.067 3.455 20.967-3.226 4.898-6.68 3.454-16.067-3.226-20.966z" fill="#ff4d05"/><path d="m505.87 420.637-249.87-183.238v37.201l232.129 170.228c6.681 4.899 16.067 3.455 20.967-3.226 4.898-6.679 3.454-16.066-3.226-20.965z" fill="#d0004f"/></g></svg>