<svg id="Layer_1" enable-background="new 0 0 510.615 510.615" height="512" viewBox="0 0 510.615 510.615" width="512" xmlns="http://www.w3.org/2000/svg"><g><g><g><g><g><g><path d="m407.057 152.969-.501 3.453c-1.544 10.639 6.706 20.173 17.456 20.173 11.046 0 19.374-10.038 17.336-20.894l-.513-2.731h-33.778z" fill="#ffb69e"/><path d="m476.213 236.653v83.273c0 9.5 7.701 17.201 17.201 17.201s17.201-7.701 17.201-17.201v-83.273l-17.201-4.56z" fill="#ffb69e"/><g id="XMLID_44_"><path d="m448.199 503.439c-11.4 0-20.641-9.241-20.641-20.641v-164.987c0-11.4 9.241-20.641 20.641-20.641s20.641 9.241 20.641 20.641v164.987c0 11.4-9.241 20.641-20.641 20.641z" fill="#414b82"/></g><g id="XMLID_43_"><path d="m397.998 503.439c-11.4 0-20.641-9.241-20.641-20.641v-164.987c0-11.4 9.241-20.641 20.641-20.641s20.641 9.241 20.641 20.641v164.987c0 11.4-9.241 20.641-20.641 20.641z" fill="#5f6e9b"/></g><ellipse cx="423.102" cy="105.956" fill="#ffb69e" rx="35.649" ry="35.649" transform="matrix(.055 -.999 .999 .055 293.91 522.551)"/><path d="m335.522 236.653v83.273c0 9.5 7.701 17.201 17.201 17.201s17.201-7.701 17.201-17.201v-83.273l-13.991-10.941z" fill="#ffb69e"/><path d="m510.614 193.471c-.112-22.333-18.657-40.502-41.34-40.502h-28.439c.036 8.88-8.261 16.333-16.919 16.333-9.279 0-16.184-7.427-16.858-16.333h-30.128c-22.72 0-41.295 18.169-41.407 40.502v.086 43.096h34.402v-43.033c.032-3.274 3.364-6.249 7.005-6.249h.427v130.44h91.483l-.16-130.44h.593c3.604 0 6.903 2.972 6.939 6.243v43.039h34.402v-43.096c.001-.029.001-.057 0-.086z" fill="#64afff"/></g></g></g></g><path d="m458.047 118.093h-7.852v-5.207c0-3.785-3.068-6.853-6.853-6.853h-41.547c-3.785 0-6.853 3.068-6.853 6.853v5.206h-6.853c-2.013 0-3.645 1.632-3.645 3.645v5.425c0 2.013 1.632 3.645 3.645 3.645h6.853v5.207c0 3.785 3.068 6.853 6.853 6.853h41.546c3.785 0 6.853-3.068 6.853-6.853v-5.207h7.852c2.013 0 3.645-1.632 3.645-3.645v-5.425c.002-2.012-1.63-3.644-3.644-3.644z" fill="#55c7a6"/></g><g><g><g><g><path d="m266.479 154.019-.5 3.442c-1.54 10.607 6.686 20.112 17.403 20.112 11.013 0 19.316-10.008 17.284-20.831l-.511-2.723z" fill="#80391b"/><path d="m335.427 237.453v83.024c0 9.472 7.678 17.15 17.149 17.15s17.149-7.678 17.149-17.15v-83.024l-17.149-4.546z" fill="#80391b"/><g id="XMLID_46_"><path d="m307.498 503.439c-11.365 0-20.579-9.213-20.579-20.579v-164.493c0-11.366 9.214-20.579 20.579-20.579 11.366 0 20.579 9.213 20.579 20.579v164.493c0 11.366-9.214 20.579-20.579 20.579z" fill="#55696e"/></g><g id="XMLID_45_"><path d="m257.447 503.439c-11.365 0-20.579-9.213-20.579-20.579v-164.493c0-11.366 9.214-20.579 20.579-20.579 11.366 0 20.579 9.213 20.579 20.579v164.493c.001 11.366-9.213 20.579-20.579 20.579z" fill="#748488"/></g><ellipse cx="282.476" cy="107.148" fill="#80391b" rx="35.543" ry="35.543" transform="matrix(.055 -.999 .999 .055 159.871 383.266)"/><path d="m195.159 237.453v83.024c0 9.472 7.678 17.15 17.149 17.15s17.149-7.678 17.149-17.15v-83.024l-13.949-10.908z" fill="#80391b"/><path d="m369.726 194.4c-.111-22.266-18.602-40.381-41.217-40.381h-28.354c.035 8.853-8.236 16.284-16.868 16.284-9.251 0-16.135-7.404-16.808-16.284h-30.037c-22.652 0-41.171 18.114-41.283 40.381v.086 42.966h34.299v-42.904c.032-3.264 3.354-6.23 6.984-6.23h.426v130.049h91.209l-.159-130.049h.592c3.594 0 6.882 2.963 6.918 6.224v42.91h34.299v-42.966c-.001-.029-.001-.057-.001-.086z" fill="#e64937"/></g></g></g></g><path d="m81.539 44.195c-2.141-1.236-4.88-.503-6.116 1.639l-.996 1.725-2.376-1.372c.664-2.056 1.026-4.246 1.026-6.52s-.362-4.464-1.026-6.519l2.376-1.372.996 1.725c1.243 2.152 3.985 2.869 6.116 1.639 2.141-1.236 2.875-3.974 1.639-6.116-.77-1.333-4.643-8.043-6.469-11.205-1.236-2.141-3.975-2.875-6.116-1.639s-2.875 3.974-1.639 6.116l.996 1.725-2.383 1.376c-2.937-3.241-6.858-5.572-11.285-6.525v-2.742h1.992c2.473 0 4.477-2.005 4.477-4.477s-2.004-4.477-4.477-4.477h-12.939c-2.473 0-4.477 2.005-4.477 4.477s2.004 4.477 4.477 4.477h1.992v2.743c-4.427.952-8.348 3.284-11.285 6.525l-2.383-1.376.996-1.725c1.236-2.141.503-4.88-1.639-6.116-2.141-1.236-4.879-.503-6.116 1.639l-6.47 11.204c-1.236 2.141-.503 4.88 1.639 6.116.705.407 1.475.601 2.234.601 1.547 0 3.052-.803 3.882-2.239l.996-1.725 2.376 1.372c-.664 2.056-1.026 4.246-1.026 6.52s.362 4.464 1.026 6.52l-2.376 1.372-.996-1.725c-1.237-2.141-3.975-2.875-6.116-1.639s-2.875 3.975-1.639 6.116l6.47 11.203c1.243 2.152 3.985 2.869 6.116 1.639 2.141-1.236 2.875-3.974 1.639-6.116l-.996-1.725 2.384-1.376c2.937 3.241 6.858 5.572 11.285 6.524v2.743h-1.992c-2.473 0-4.477 2.004-4.477 4.477s2.004 4.477 4.477 4.477h12.938c2.473 0 4.477-2.004 4.477-4.477s-2.004-4.477-4.477-4.477h-1.992v-2.743c4.427-.952 8.348-3.284 11.285-6.524l2.383 1.376-.996 1.725c-1.236 2.141-.503 4.879 1.639 6.116 2.134 1.232 4.875.51 6.116-1.639 2.317-4.013 4.153-7.193 6.469-11.205 1.236-2.141.502-4.879-1.639-6.116zm-29.735 7.791c-6.792 0-12.318-5.526-12.318-12.319s5.526-12.318 12.318-12.318 12.319 5.526 12.319 12.318-5.526 12.319-12.319 12.319z" fill="#a5c8cd"/><g><g><g><g id="XMLID_47_"><g id="XMLID_49_"><path d="m83.537 503.439c-11.04 0-19.989-8.949-19.989-19.989v-159.776c0-11.04 8.949-19.989 19.989-19.989s19.989 8.949 19.989 19.989v159.776c0 11.04-8.95 19.989-19.989 19.989z" fill="#ffb69e"/></g><g id="XMLID_48_"><path d="m132.146 503.439c-11.04 0-19.989-8.949-19.989-19.989v-159.776c0-11.04 8.949-19.989 19.989-19.989s19.989 8.949 19.989 19.989v159.776c0 11.04-8.95 19.989-19.989 19.989z" fill="#ffb69e"/></g></g><ellipse cx="107.841" cy="118.512" fill="#ffb69e" rx="34.523" ry="34.523" transform="matrix(.099 -.995 .995 .099 -20.72 214.15)"/><path d="m127.202 169.571-.488-5.532h-38.932c.001.026-.245 1.904-.609 4.665-1.588 12.063 7.799 22.776 19.966 22.776 11.822 0 21.101-10.133 20.063-21.909z" fill="#ffb69e"/><g><path d="m29.43 229.324s-28.2 78.043-28.413 78.624c-3.159 8.64 1.285 18.205 9.924 21.364 8.637 3.159 18.205-1.282 21.365-9.924.206-.563 29.337-81.481 29.337-81.481l-13.161-11.265z" fill="#ffb69e"/></g><path d="m214.665 307.949c-.213-.582-29.241-80.948-29.241-80.948l-22.076-4.58-9.312 15.487s29.132 80.917 29.338 81.481c3.159 8.639 12.721 13.084 21.365 9.924 8.641-3.159 13.085-12.724 9.926-21.364z" fill="#ffb69e"/><path d="m154.037 237.908 31.387-10.907s-7.445-21.023-10.21-29.069c-7.729-22.489-20.687-33.892-38.516-33.892h-9.985c-.902 9.571-10.037 17.327-19.548 17.327-10.196 0-17.934-7.73-19.383-17.327h-8.799c-17.829 0-30.787 11.403-38.516 33.892-2.961 8.616-11.038 31.393-11.038 31.393l32.214 8.584-20.147 113.864c-.982 5.669 3.406 10.845 9.118 10.845h114.455c5.729 0 10.101-5.168 9.118-10.845z" fill="#ff6473"/></g></g></g></g></svg>