<?xml version="1.0" encoding="iso-8859-1"?>
<!-- Generator: Adobe Illustrator 19.0.0, SVG Export Plug-In . SVG Version: 6.00 Build 0)  -->
<svg xmlns="http://www.w3.org/2000/svg" xmlns:xlink="http://www.w3.org/1999/xlink" version="1.1" id="Layer_1" x="0px" y="0px" viewBox="0 0 489.833 489.833" style="enable-background:new 0 0 489.833 489.833;" xml:space="preserve" width="512" height="512">
<g>
	<path style="fill:#FFD0A6;" d="M455.326,224.332c0,26.209-20.184,47.687-45.849,49.74c-1.339,0.113-2.7,0.17-4.062,0.17   c-3.495,0-6.898-0.352-10.189-1.044H94.607c-3.29,0.692-6.694,1.044-10.189,1.044h-0.034c-27.559-0.023-49.876-22.351-49.876-49.91   c0-25.982,19.855-47.324,45.225-49.672c1.543-0.159,3.109-0.227,4.686-0.227c2.099,0,4.153,0.125,6.183,0.374h308.63   c2.031-0.25,4.085-0.374,6.184-0.374c2.961,0,5.866,0.261,8.679,0.76C437.524,179.289,455.326,199.734,455.326,224.332z"/>
	<path style="fill:#E8B182;" d="M414.095,175.193v63.219c0,12.276-1.6,24.224-4.618,35.66c-1.339,0.113-2.7,0.17-4.062,0.17   c-3.495,0-6.898-0.352-10.189-1.044H94.607c-3.29,0.692-6.694,1.044-10.189,1.044h-0.034c-3.041-11.493-4.652-23.486-4.652-35.83   v-63.752c1.543-0.159,3.109-0.227,4.686-0.227c2.099,0,4.153,0.125,6.183,0.374h308.63c2.031-0.25,4.085-0.374,6.184-0.374   C408.376,174.432,411.281,174.693,414.095,175.193z"/>
	<path style="fill:#D6996B;" d="M428.115,233.335c-2.896,0-5.653-1.687-6.882-4.511c-1.281-2.947-3.835-6.954-11.187-7.729   c-4.625-0.486-8.73,0.597-8.77,0.607c-3.987,1.129-8.132-1.183-9.263-5.167s1.182-8.132,5.167-9.263   c9.557-2.712,29.756-2.949,37.808,15.57c1.651,3.799-0.089,8.217-3.888,9.869C430.127,233.134,429.113,233.335,428.115,233.335z"/>
	<path style="fill:#D6996B;" d="M65.718,233.335c-0.998,0-2.013-0.201-2.986-0.624c-3.799-1.651-5.54-6.07-3.888-9.868   c8.052-18.52,28.253-18.285,37.808-15.57c3.985,1.131,6.298,5.278,5.167,9.263c-1.128,3.973-5.258,6.284-9.228,5.177   c-0.162-0.043-4.434-1.156-9.164-0.576c-7.087,0.871-9.573,4.804-10.827,7.688C71.372,231.648,68.614,233.335,65.718,233.335z"/>
	<path style="fill:#E8B182;" d="M399.229,152.319v103.724c0,74.225-53.099,136.048-123.386,149.561   c-9.36,1.804-19.038,2.746-28.932,2.746c-84.118,0-152.307-68.189-152.307-152.307V152.319   c0-84.118,68.189-152.318,152.307-152.318c9.894,0,19.572,0.942,28.932,2.746c30.464,5.854,57.694,20.786,78.774,41.866   C382.176,72.184,399.229,110.26,399.229,152.319z"/>
	<path style="fill:#FFD0A6;" d="M399.229,152.319v103.724c0,74.225-53.099,136.048-123.386,149.561   c-70.288-13.513-123.386-75.337-123.386-149.561V152.319c0-74.225,53.099-136.059,123.386-149.572   c30.464,5.854,57.694,20.786,78.774,41.866C382.176,72.184,399.229,110.26,399.229,152.319z"/>
	<path style="fill:#5B5B68;" d="M399.231,152.319v56.322c-180.32-0.227-240.26-73.975-240.26-73.975   c0,30.634-30.634,62.958-64.365,73.975v-56.322c0-84.118,68.189-152.318,152.307-152.318c9.894,0,19.572,0.942,28.932,2.746   c30.464,5.854,57.694,20.786,78.774,41.866C382.178,72.184,399.231,110.26,399.231,152.319z"/>
	<path style="fill:#40404C;" d="M275.83,2.75c-70.28,13.51-123.38,75.34-123.38,149.57v7.78c-10.75,21.52-33.49,40.58-57.85,48.54   v-56.32C94.601,68.2,162.79,0,246.901,0C256.8,0,266.47,0.94,275.83,2.75z"/>
	<path style="fill:#F95C5C;" d="M298.403,337.68c0-28.435-23.051-51.486-51.486-51.486s-51.486,23.051-51.486,51.486   c0,28.435,23.051,22.219,51.486,22.219S298.403,366.115,298.403,337.68z"/>
	<path style="fill:#FFFFFF;" d="M290.336,310.01c-9.15,5.67-25.17,3.11-43.42,3.11s-34.28,2.56-43.43-3.11   c9.14-14.33,25.18-23.82,43.43-23.82S281.196,295.68,290.336,310.01z"/>
	<path style="fill:#E4E4EF;" d="M319.458,448.163c0,13.78-11.17,24.96-24.96,24.96c-6.22,0-11.91-2.29-16.28-6.05   c-4.28,13.2-16.67,22.76-31.3,22.76c-14.63,0-27.03-9.56-31.3-22.76c-4.37,3.76-10.06,6.05-16.29,6.05   c-13.78,0-24.96-11.18-24.96-24.96c0-13.79,11.18-24.96,24.96-24.96c1.72,0,3.4,0.17,5.02,0.5c1.69-15.75,19.7-28.19,41.83-28.46   c0.25-0.01,0.49-0.01,0.74-0.01c22.46,0,40.86,12.54,42.56,28.47c1.62-0.33,3.3-0.5,5.02-0.5   C308.288,423.203,319.458,434.373,319.458,448.163z"/>
	<path style="fill:#E4E4EF;" d="M204.202,391.744c-0.653,0-1.317-0.086-1.978-0.266c-3.997-1.09-6.353-5.213-5.263-9.209   l11.729-43.004c1.09-3.996,5.211-6.354,9.209-5.263c3.997,1.09,6.353,5.213,5.263,9.209l-11.729,43.005   C210.523,389.551,207.5,391.744,204.202,391.744z"/>
	<path style="fill:#E4E4EF;" d="M290.315,391.744c-3.298,0-6.321-2.193-7.23-5.528l-11.729-43.005   c-1.09-3.996,1.266-8.119,5.262-9.209c3.996-1.09,8.12,1.266,9.209,5.263l11.729,43.004c1.09,3.997-1.266,8.12-5.262,9.209   C291.632,391.658,290.968,391.744,290.315,391.744z"/>
	<path style="fill:#E4E4EF;" d="M246.916,382.728c-4.142,0-7.5-3.358-7.5-7.5v-33.99c0-4.142,3.358-7.5,7.5-7.5   c4.143,0,7.5,3.358,7.5,7.5v33.99C254.416,379.37,251.059,382.728,246.916,382.728z"/>
	<g>
		<path style="fill:#D6996B;" d="M166.105,286.999c-3.206,0-6.174-2.072-7.166-5.296c-1.218-3.959,1.004-8.156,4.963-9.374    l27.736-8.534l-17.874-17.874c-2.929-2.929-2.929-7.678,0-10.606c2.929-2.929,7.678-2.929,10.606,0l26.682,26.682    c1.86,1.86,2.61,4.558,1.976,7.111c-0.634,2.553-2.559,4.587-5.073,5.36l-39.642,12.197    C167.579,286.891,166.836,286.999,166.105,286.999z"/>
		<path style="fill:#D6996B;" d="M327.728,286.999c-0.731,0-1.474-0.107-2.209-0.333l-39.643-12.197    c-2.514-0.773-4.438-2.808-5.073-5.36c-0.634-2.553,0.116-5.251,1.976-7.111l26.683-26.682c2.931-2.93,7.679-2.929,10.607,0    s2.929,7.678,0,10.606l-17.875,17.874l27.737,8.534c3.958,1.218,6.181,5.415,4.962,9.374    C333.902,284.927,330.933,286.999,327.728,286.999z"/>
	</g>
	<path style="fill:#CACADB;" d="M227.018,439.864c0,0-17.59,4.36-11.4,27.21c-4.37,3.76-10.06,6.05-16.29,6.05   c-13.78,0-24.96-11.18-24.96-24.96c0-13.79,11.18-24.96,24.96-24.96c1.72,0,3.4,0.17,5.02,0.5c1.69-15.75,19.7-28.19,41.83-28.46   C226.678,395.993,213.178,426.023,227.018,439.864z"/>
</g>















</svg>
