<svg id="Layer_1" enable-background="new 0 0 256 256" height="512" viewBox="0 0 256 256" width="512" xmlns="http://www.w3.org/2000/svg"><g><path d="m198.56 120.05-16.779-27.944-98.665 26.437-.558 32.59s-2.297 42.916 18.476 61.15c1.324 1.162 3.052 1.555 4.631 1.132l37.86-10.145 28.306-7.584 37.86-10.144c1.579-.423 2.879-1.627 3.445-3.295 8.871-26.179-14.576-62.197-14.576-62.197z" fill="#87828e"/><path d="m213.138 182.241c-.569 1.672-1.875 2.874-3.445 3.295l-15.296 4.099c1.57-.421 2.877-1.623 3.445-3.295 8.868-26.17-14.578-62.195-14.578-62.195l-16.777-27.943 15.296-4.099 16.777 27.943s23.446 36.026 14.578 62.195z" fill="#796e84"/><path d="m120.956 209.313-15.296 4.099c-1.57.421-3.303.033-4.631-1.131-20.765-18.229-18.473-61.152-18.473-61.152l.558-32.588 15.296-4.099-.558 32.588s-2.292 42.922 18.473 61.152c1.328 1.164 3.06 1.552 4.631 1.131z" fill="#a4a4a5"/><path d="m139.126 171.246h31.671v36.19h-31.671z" fill="#ffbb98" transform="matrix(.966 -.259 .259 .966 -43.725 46.558)"/><path d="m139.395 173.292h15.836v36.19h-15.836z" fill="#ffcaa6" transform="matrix(.966 -.259 .259 .966 -44.515 44.649)"/><path d="m153.467 173.746-5.01 1.342c-24.732 6.627-50.389-8.186-57.016-32.918l-12.134-45.285c-.896-3.345 1.107-6.814 4.452-7.71l82.783-22.182c3.345-.896 6.814 1.107 7.71 4.452l12.134 45.285c6.627 24.732-8.187 50.389-32.919 57.016z" fill="#ffbb98"/><path d="m245.771 246.107h-139.961c-3.696 0-6.241-3.699-4.94-7.158 4.489-11.939 11.976-23.382 23.038-32.864 0 0 .011.011.011 0 .76-.644 1.531-1.278 2.312-1.911.011.011.011.011.011 0 6.536-5.136 13.916-9.251 21.272-12.003h.011c4.955-1.822 10.102-3.275 15.297-4.096-.014.005-.028.012-.043.017 38.12-6.323 75.008 15.76 87.95 50.903 1.269 3.449-1.284 7.112-4.958 7.112z" fill="#ffe2e2"/><path d="m245.755 246.107h-9.309c-12.424-37.893-50.7-60.309-88.922-53.936.998-.367 3.452-1.261 4.476-1.531v-.011c3.026-.946 7.213-1.984 10.821-2.555-.014.005-.028.012-.043.017 37.896-6.286 74.772 15.456 87.928 50.887 1.283 3.453-1.269 7.129-4.951 7.129z" fill="#ffcfcf"/><path d="m162.821 188.075c-25.036 9.322-44.171 31.18-49.967 58.032h-7.051c-3.716 0-6.229-3.722-4.92-7.2 4.458-11.847 11.989-23.408 23.024-32.822 0 0 .011.011.011 0 .76-.644 1.531-1.278 2.312-1.911.011.011.011.011.011 0 6.345-5.041 13.924-9.254 21.272-12.003h.011c5.048-1.855 9.966-3.253 15.297-4.096z" fill="#ffefee"/><path d="m174.337 71.78 11.372 42.441c6.998 26.115-8.641 53.203-34.747 60.198-2.6.697-5.217 1.168-7.815 1.427 21.519-9.712 33.566-34.011 27.265-57.527l-11.372-42.441c-.945-3.528-4.605-5.641-8.133-4.696l15.296-4.099c3.53-.944 7.189 1.169 8.134 4.697z" fill="#ffaa80"/><path d="m158.444 171.748c-2.379 1.075-4.881 1.975-7.481 2.671-26.105 6.995-53.193-8.644-60.19-34.76l-11.373-42.441c-.945-3.528 1.167-7.187 4.695-8.133l15.296-4.099c-3.528.945-5.641 4.605-4.695 8.133l11.372 42.441c6.301 23.516 28.884 38.537 52.376 36.188z" fill="#ffcaa6"/><path d="m122.456 25.883-8.757 2.346-3.314.888-9.004 2.413c-27.035 7.244-43.079 35.033-35.835 62.068l6.045 22.562c.751 2.802 3.628 4.472 6.436 3.744 41.541-10.767 44.159-32.639 43.746-50.544 8.545 15.757 20.936 32.973 65.008 21.327 2.83-.748 4.526-3.65 3.768-6.478l-6.027-22.492c-7.242-27.035-35.031-43.078-62.066-35.834z" fill="#87828e"/><path d="m184.527 61.716 6.028 22.495c.757 2.825-.946 5.729-3.773 6.476-4.653 1.236-8.958 2.138-12.934 2.755 1.315-1.292 1.92-3.236 1.412-5.133l-6.028-22.495c-7.244-27.033-35.029-43.075-62.073-35.829l15.296-4.099c27.042-7.245 54.828 8.797 62.072 35.83z" fill="#796e84"/><path d="m80.84 89.499 6.047 22.567c.514 1.917 2.033 3.303 3.838 3.759-3.765 1.49-7.978 2.859-12.7 4.081-2.8.728-5.686-.947-6.434-3.741l-6.047-22.567c-7.244-27.033 8.799-54.819 35.842-62.065l15.296-4.099c-27.043 7.246-43.085 35.032-35.842 62.065z" fill="#a4a4a5"/><g fill="#5f266d"><path d="m254.691 237.537c-8.077-21.934-24.669-38.727-44.971-47.636l1.065-.286c2.966-.794 5.34-3.042 6.353-6.019 9.309-27.468-13.496-63.467-14.994-65.786l-13.905-23.16c2.298-.708 4.22-2.222 5.433-4.314 1.179-2.034 1.548-4.376 1.08-6.657 12.833-1.129 23.579-2.559 31.282-4.173 10.078-2.111 16.791-4.644 16.799-10.152-.005-5.716-7.423-8.331-18.561-10.5-9.243-1.799-22.257-3.339-37.758-4.473-.546-1.367-1.132-2.712-1.78-4.022 12.877-8.723 23.424-16.564 30.632-22.781 10.599-9.142 13.755-14.396 11.25-18.743-2.592-4.487-9.172-4.226-23.472.934-10.218 3.688-23.954 9.797-39.822 17.702-.101-.059-.196-.123-.297-.181-12.701-7.333-27.496-9.281-41.66-5.485l-21.074 5.647c-14.165 3.795-26.004 12.88-33.336 25.58-.139.241-.263.488-.398.73-18.141 1.068-33.5 2.647-44.52 4.584-15.541 2.729-21.319 5.716-21.321 11.024.007 5.069 5.531 8.072 19.702 10.712 9.728 1.812 23.268 3.34 39.324 4.444.076.999.183 1.997.314 2.996-13.391 9.027-24.353 17.147-31.794 23.557-10.657 9.18-13.834 14.452-11.328 18.809 3.357 5.806 13.865 2.31 20.208.192 7.808-2.607 18.257-6.97 30.415-12.691 1.181 4.152 5.001 6.905 9.156 6.905.689 0 1.386-.09 2.082-.247l-.461 26.937c-.138 2.758-1.888 45.336 19.911 64.473 1.745 1.528 3.937 2.342 6.159 2.342 1.654 0 2.682-.431 3.462-.608-4.527 6.172-8.195 12.943-10.951 20.272-2.334 6.207 2.246 12.866 8.893 12.866h139.961c6.607.001 11.205-6.593 8.922-12.792zm-23.11-168.191c-4.582 1.563-15.174 4.026-39.021 6.046l-3.304-12.332c24.1 1.898 36.774 4.434 42.325 6.286zm-171.832 6.715c-27.753-1.929-41.938-4.707-47.862-6.705 6.146-2.085 21.14-4.971 50.745-6.892-1.543 4.411-2.513 8.973-2.883 13.597zm-33.096 48.209c3.988-4.508 14.164-13.416 35.286-27.822l3.391 12.654c-21.167 10.033-33.073 14.024-38.677 15.168zm163.349-10.274c11.664 18.412 26.136 46.234 19.138 66.886-.103.302-.299.511-.54.576l-13.367 3.582c-6.874-1.625-14.009-2.39-21.255-2.223l-3.57-13.322c17.01-12.891 24.793-34.719 19.594-55.499zm-26.787 50.273c-25.367 17.1-60.406 4-68.364-25.703l-4.813-17.963c13.753-5.029 23.348-11.953 29.152-21.019 3.499-5.465 5.272-11.225 6.124-16.863 8.972 11.358 23.056 19.579 51.471 14.511l4.845 18.081c4.968 18.539-2.431 38.211-18.415 48.956zm2.192 19.187c-7.995 1.005-15.442 3.026-22.441 5.985l-2.466-9.204c7.946-.324 15.448-2.331 22.438-5.994zm51.52-169.037c-4.039 4.579-14.524 13.748-36.533 28.68-2.634-3.724-5.735-7.105-9.244-10.078 25.579-12.541 39.544-17.355 45.777-18.602zm-39.953 39.337c-14.271-.841-28.419-1.288-42.657-1.453 9.73-5.38 19.249-10.432 28.45-15.098 5.88 4.243 10.803 9.862 14.207 16.551zm-74.499-18.148 21.074-5.647c4.013-1.075 8.044-1.588 12.013-1.588 6.427 0 12.688 1.347 18.427 3.834-11.868 6.119-24.209 12.837-36.806 20.04-14.051.061-27.562.389-40.304.975 6.234-8.635 15.169-14.82 25.596-17.614zm-30.559 26.315c9.702-.511 19.897-.865 30.476-1.061-12.1 7.177-23.743 14.408-34.32 21.333-.27-6.943 1.028-13.844 3.844-20.272zm5.054 53.893c-.568.145-1.148-.19-1.298-.75l-6.046-22.562c-.093-.347-.168-.695-.252-1.043 23.358-15.48 49.95-30.707 50.071-30.779 20.881.19 37.258.222 60.888 1.743.036.129.077.256.112.386l6.026 22.491c.153.572-.197 1.151-.768 1.303-2.416.638-4.722 1.184-6.935 1.652-.005.002-.01.001-.015.003-.002.001-.004.002-.006.002-34.589 7.303-45-5.681-53.261-20.914-.93-1.715-2.913-2.568-4.798-2.068-1.885.502-3.181 2.228-3.136 4.178.398 17.236-2.377 36.455-40.582 46.358zm27.597 93.517c-.24.066-.515-.018-.752-.225-18.965-16.648-17.064-57.346-17.043-57.753.003-.051.005-.102.006-.153l.164-9.589c5.89 20.597 23.544 35.609 44.717 38.265l3.571 13.328c-6.988 3.843-12.398 7.966-17.226 12.526zm142.072 32.097c-.144.208-.412.455-.869.455h-139.96c-.456 0-.723-.247-.866-.454-.146-.212-.287-.556-.122-.994 24.581-65.369 117.821-65.485 141.944.02.158.427.018.765-.127.973z"/><path d="m163.06 219.566c-3.52.943-5.609 4.561-4.666 8.081s4.561 5.609 8.081 4.666 5.609-4.561 4.666-8.081-4.561-5.609-8.081-4.666z"/><path d="m141.539 133.749c-.705.38-12.445 1.576-14.941 13.657-.472 2.284.996 4.518 3.281 4.99 2.293.476 4.52-1.008 4.99-3.281.653-3.157 2.993-5.637 6.107-6.471 1.06-.069 6.861-3.144 11.274 1.814 1.551 1.742 4.22 1.897 5.962.346 5.45-4.851-5.835-13.959-16.673-11.055z"/><path d="m171.562 111.593c-.604-2.253-2.92-3.59-5.172-2.986l-4.939 1.323 2.556-4.428c1.166-2.02.474-4.602-1.546-5.769-2.021-1.164-4.603-.475-5.769 1.546-1.566 2.715-7.307 12.649-7.676 13.306-1.829 3.262 1.204 7.088 4.76 6.144.345-.091 14.666-3.928 14.798-3.964 2.255-.604 3.592-2.919 2.988-5.172z"/><path d="m122.687 121.597-13.257-7.654c-2.021-1.166-4.602-.474-5.769 1.546-1.166 2.02-.474 4.602 1.546 5.769l4.427 2.556-4.938 1.323c-2.253.604-3.59 2.919-2.986 5.172.506 1.887 2.212 3.131 4.076 3.131.362 0 .729-.047 1.095-.145 15.179-4.071 16.728-3.852 17.691-6.686.652-1.916-.178-4.032-1.885-5.012z"/><path d="m207.762 206.72c-1.851-1.421-4.501-1.071-5.92.78-1.42 1.85-1.071 4.5.779 5.92.056.043 5.616 4.325 11.596 10.101.82.792 1.877 1.186 2.933 1.186 1.105 0 2.209-.431 3.038-1.289 1.62-1.677 1.574-4.351-.104-5.971-6.342-6.126-12.081-10.542-12.322-10.727z"/><path d="m231.114 229.85c-1.356-1.897-3.994-2.336-5.891-.978-1.897 1.357-2.335 3.994-.978 5.891l.182.254c.826 1.14 2.115 1.745 3.423 1.745.859 0 1.726-.261 2.475-.804 1.888-1.369 2.309-4.009.941-5.898z"/></g></g></svg>