<svg id="Layer_1" enable-background="new 0 0 256 256" height="512" viewBox="0 0 256 256" width="512" xmlns="http://www.w3.org/2000/svg"><path d="m186.755 101.107c-.138 0-.271.018-.408.02v-6.042c0-35.316-28.929-63.945-64.615-63.945-35.686 0-64.615 28.629-64.615 63.945v6.042c-.137-.003-.271-.02-.408-.02-10.887 0-19.713 8.734-19.713 19.509 0 10.774 8.826 19.509 19.713 19.509.715 0 1.42-.042 2.115-.116 6.668 28.289 32.292 49.369 62.908 49.369 30.616 0 56.24-21.08 62.908-49.369.695.073 1.4.116 2.115.116 10.887 0 19.713-8.734 19.713-19.509-.001-10.775-8.826-19.509-19.713-19.509z" fill="#f9cfcf"/><path d="m196.258 248h-149.053v-20.956c0-19.208 15.571-34.779 34.779-34.779h79.495c19.208 0 34.779 15.571 34.779 34.779z" fill="#6bdddd"/><path d="m126.507 189.184c-.261.02-.521.042-.783.06-.405.025-.811.046-1.219.063-.92.041-1.844.07-2.774.07-.931 0-1.855-.029-2.775-.07-.408-.017-.814-.039-1.219-.063-.261-.017-.52-.039-.78-.059-9.516-.689-18.461-3.402-26.384-7.733v7.425c0 17.262 13.501 31.256 30.156 31.256h2.005c16.655 0 30.156-13.994 30.156-31.256v-7.425c-7.923 4.33-16.868 7.043-26.383 7.732z" fill="#f9cfcf"/><path d="m196.258 250h-149.053c-1.104 0-2-.896-2-2v-20.956c0-20.28 16.499-36.779 36.779-36.779h6.619c-.02-.467-.029-.931-.029-1.389v-7.425c0-.706.373-1.36.98-1.721.607-.358 1.36-.373 1.979-.034 7.894 4.314 16.497 6.836 25.569 7.493l.762.058c.387.023.782.044 1.178.062 1.788.08 3.592.08 5.375 0 .397-.018.79-.037 1.182-.062l.751-.058c9.085-.658 17.688-3.179 25.58-7.493.619-.339 1.372-.324 1.979.034.607.36.98 1.015.98 1.721v7.425c0 .458-.01.922-.029 1.389h6.619c20.28 0 36.779 16.499 36.779 36.779v20.956c0 1.104-.896 2-2 2zm-147.053-4h145.053v-18.956c0-18.074-14.705-32.779-32.779-32.779h-8.769c-.566 0-1.106-.24-1.485-.661s-.563-.982-.504-1.546c.112-1.075.168-2.146.168-3.182v-4.146c-7.574 3.664-15.712 5.831-24.238 6.449l-.179.014c-.207.017-.414.033-.622.047-.419.026-.838.048-1.258.065-1.895.084-3.826.084-5.725 0-.417-.018-.834-.04-1.251-.065l-.809-.061c-8.522-.617-16.659-2.784-24.234-6.449v4.146c0 1.036.057 2.106.168 3.182.059.563-.125 1.125-.504 1.546s-.919.661-1.485.661h-8.769c-18.075 0-32.779 14.705-32.779 32.779v18.956z" fill="#3762cc"/><path d="m121.731 191.377c-30.546 0-56.805-20.17-64.444-49.261-.194.005-.387.008-.579.008-11.973 0-21.713-9.648-21.713-21.509 0-11.33 8.889-20.643 20.122-21.451v-4.079c0-36.362 29.883-65.944 66.615-65.944s66.615 29.582 66.615 65.944v4.079c11.232.811 20.121 10.122 20.121 21.451 0 12.051-10.031 21.798-22.292 21.501-7.64 29.091-33.898 49.261-64.445 49.261zm-62.906-53.369c.917 0 1.73.63 1.945 1.541 6.638 28.16 31.706 47.828 60.961 47.828s54.324-19.668 60.961-47.828c.231-.979 1.153-1.624 2.156-1.53.672.071 1.295.105 1.905.105 9.767 0 17.713-7.854 17.713-17.509 0-9.652-7.944-17.506-17.708-17.509-.181.012-.275.018-.371.021-.541.002-1.057-.194-1.441-.57-.384-.377-.601-.892-.601-1.43v-6.042c0-34.156-28.089-61.944-62.615-61.944s-62.613 27.788-62.613 61.944v6.042c0 .538-.217 1.053-.601 1.43-.384.376-.905.568-1.441.57-.096-.003-.19-.009-.284-.015-.003 0-.007 0-.01 0-9.845 0-17.785 7.852-17.785 17.503 0 9.654 7.946 17.509 17.713 17.509.61 0 1.233-.034 1.905-.105.071-.007.141-.011.211-.011z" fill="#3762cc"/><path d="m35.888 78.471c-2.924-7.829-3.132-16.414-.59-24.376l.218-.684c4.158-13.024 15.113-22.727 28.544-25.282 6.34-1.206 12.884-.745 18.992 1.337l.713.243c.041.37.103.742.194 1.111 2.933 11.989 8.317 23.038 15.632 32.533-6.348 17.689-14.117 27.774-20.038 33.357v.002l-7.773 7.889-15.072-3.494c-4.118 0-7.939 1.253-11.101 3.39z" fill="#4671c6"/><path d="m198.305 51.659c-5.07-15.73-16.649-28.23-31.454-34.392l.001-.008c-52.045-25.619-80.51 5.289-80.51 5.289-2.142 2.062-3.136 5.197-2.384 8.273 5.975 24.423 22.073 44.985 44.102 56.333l.031.016c4.756 2.45 9.721 4.45 14.835 5.976 1.272.38 2.297-1.093 1.527-2.192l-10.701-15.271c-.933-1.331.706-2.956 1.978-1.959 11.833 9.266 34.824 24.616 58.08 25.387l3.787-10.371c4.354-11.921 4.603-24.997.708-37.081z" fill="#4671c6"/><g fill="#3762cc"><path d="m71.78 106.601c-.15 0-.302-.017-.452-.052l-14.843-3.441c-3.5.043-6.87 1.094-9.758 3.047-.508.343-1.145.434-1.729.248-.584-.187-1.05-.631-1.265-1.206l-9.718-26.027v.001c-3.067-8.212-3.288-17.334-.622-25.685l.219-.685c4.385-13.736 15.909-23.943 30.075-26.638 6.667-1.269 13.586-.78 20.011 1.409l.713.243c.734.25 1.257.901 1.343 1.672.033.302.083.59.149.856 2.845 11.632 7.984 22.327 15.274 31.788.416.54.528 1.255.298 1.896-6.602 18.394-14.784 28.688-20.503 34.093l-7.768 7.884c-.38.387-.895.597-1.424.597zm-15.072-7.495c.152 0 .304.018.452.052l13.98 3.241 6.944-7.048c.031-.033.063-.065.096-.097 5.298-4.995 12.877-14.504 19.158-31.559-7.279-9.688-12.431-20.583-15.323-32.4-.006-.024-.012-.049-.018-.073-5.655-1.852-11.719-2.243-17.565-1.129-12.722 2.421-23.072 11.588-27.01 23.926l-.219.685c-2.394 7.5-2.196 15.692.559 23.067v.001l8.882 23.784c3.093-1.609 6.528-2.45 10.064-2.45z"/><path d="m193.811 101.11c-.022 0-.044 0-.066-.001-21.968-.727-43.604-14.087-56.174-23.463l8.521 12.16c.853 1.216.843 2.78-.026 3.986-.855 1.189-2.31 1.688-3.709 1.271-5.222-1.56-10.329-3.616-15.179-6.115-22.594-11.64-39.043-32.646-45.16-57.651-.895-3.657.216-7.541 2.899-10.15.687-.731 7.983-8.247 21.535-12.748 12.784-4.246 33.793-6.468 61.286 7.066.016.008.032.016.048.024 15.412 6.471 27.225 19.421 32.425 35.557 4.016 12.459 3.755 26.09-.733 38.38l-3.787 10.37c-.291.791-1.043 1.314-1.88 1.314zm-58.936-29.699c.727 0 1.458.244 2.088.737 11.25 8.811 33.215 23.57 55.472 24.896l3.283-8.991c4.185-11.458 4.427-24.165.684-35.781-4.859-15.076-15.91-27.162-30.319-33.159-.094-.039-.184-.085-.269-.137-50.023-24.532-77.725 4.63-78 4.926-.027.03-.056.059-.084.087-1.689 1.625-2.39 4.061-1.828 6.356 5.842 23.88 21.542 43.938 43.075 55.03 4.145 2.136 8.458 3.925 12.868 5.342l-9.731-13.887c-.988-1.411-.799-3.293.448-4.476.662-.625 1.484-.943 2.313-.943z"/><path d="m166.613 118.846c-16.123 0-26.274-10.593-26.726-11.074-.756-.805-.717-2.07.088-2.826.805-.757 2.068-.718 2.825.086.146.153 10.765 11.109 26.775 9.682 1.108-.086 2.072.714 2.17 1.814s-.714 2.071-1.814 2.17c-1.131.101-2.239.148-3.318.148z"/><path d="m167.25 128.937h-25.905c-1.104 0-2-.896-2-2s.896-2 2-2h25.905c1.104 0 2 .896 2 2s-.896 2-2 2z"/><path d="m77.437 118.846c-1.08 0-2.186-.047-3.318-.148-1.1-.099-1.912-1.07-1.814-2.17.099-1.101 1.082-1.906 2.17-1.814 16.117 1.436 26.669-9.568 26.773-9.68.756-.806 2.021-.846 2.827-.088.805.756.844 2.021.088 2.826-.451.481-10.605 11.074-26.726 11.074z"/><path d="m102.706 128.937h-25.905c-1.104 0-2-.896-2-2s.896-2 2-2h25.905c1.104 0 2 .896 2 2s-.895 2-2 2z"/></g><ellipse cx="121.641" cy="158.571" fill="#f9a7a7" rx="17.5" ry="12.5"/><path d="m121.641 173.071c-10.752 0-19.5-6.505-19.5-14.5s8.748-14.5 19.5-14.5 19.5 6.505 19.5 14.5-8.748 14.5-19.5 14.5zm0-25c-8.547 0-15.5 4.71-15.5 10.5s6.953 10.5 15.5 10.5 15.5-4.71 15.5-10.5-6.953-10.5-15.5-10.5z" fill="#3762cc"/><path d="m190.483 152.263c-3.468 0-5.312-1.29-6.793-2.326-1.226-.857-2.035-1.424-3.928-1.424-1.891 0-2.699.566-3.924 1.423-1.48 1.037-3.324 2.327-6.79 2.327-3.467 0-5.311-1.29-6.792-2.327-1.225-.856-2.033-1.423-3.925-1.423-1.381 0-2.5-1.119-2.5-2.5s1.119-2.5 2.5-2.5c3.467 0 5.311 1.29 6.792 2.327 1.225.856 2.033 1.423 3.925 1.423 1.89 0 2.698-.566 3.923-1.423 1.48-1.037 3.324-2.327 6.791-2.327 3.468 0 5.312 1.29 6.793 2.326 1.226.857 2.035 1.424 3.928 1.424s2.702-.566 3.928-1.424c1.481-1.036 3.325-2.326 6.794-2.326 1.381 0 2.5 1.119 2.5 2.5s-1.119 2.5-2.5 2.5c-1.894 0-2.703.566-3.929 1.424-1.481 1.036-3.325 2.326-6.793 2.326z" fill="#6bdddd"/><path d="m178.356 165.069c-3.468 0-5.312-1.29-6.793-2.326-1.226-.857-2.035-1.424-3.928-1.424-1.891 0-2.699.566-3.924 1.423-1.48 1.037-3.324 2.327-6.79 2.327-3.467 0-5.311-1.29-6.792-2.327-1.225-.856-2.033-1.423-3.925-1.423-1.381 0-2.5-1.119-2.5-2.5s1.119-2.5 2.5-2.5c3.467 0 5.311 1.29 6.792 2.327 1.225.856 2.033 1.423 3.925 1.423 1.89 0 2.698-.566 3.923-1.423 1.48-1.037 3.324-2.327 6.791-2.327 3.468 0 5.312 1.29 6.793 2.326 1.226.857 2.035 1.424 3.928 1.424s2.702-.566 3.928-1.424c1.481-1.036 3.325-2.326 6.793-2.326 1.381 0 2.5 1.119 2.5 2.5s-1.119 2.5-2.5 2.5c-1.893 0-2.702.566-3.928 1.424-1.481 1.036-3.325 2.326-6.793 2.326z" fill="#6bdddd"/><path d="m190.483 178.513c-3.468 0-5.312-1.29-6.793-2.326-1.226-.857-2.035-1.424-3.928-1.424-1.891 0-2.699.566-3.924 1.423-1.48 1.037-3.324 2.327-6.79 2.327-3.467 0-5.311-1.29-6.792-2.327-1.225-.856-2.033-1.423-3.925-1.423-1.381 0-2.5-1.119-2.5-2.5s1.119-2.5 2.5-2.5c3.467 0 5.311 1.29 6.792 2.327 1.225.856 2.033 1.423 3.925 1.423 1.89 0 2.698-.566 3.923-1.423 1.48-1.037 3.324-2.327 6.791-2.327 3.468 0 5.312 1.29 6.793 2.326 1.226.857 2.035 1.424 3.928 1.424s2.702-.566 3.928-1.424c1.481-1.036 3.325-2.326 6.794-2.326 1.381 0 2.5 1.119 2.5 2.5s-1.119 2.5-2.5 2.5c-1.894 0-2.703.566-3.929 1.424-1.481 1.036-3.325 2.326-6.793 2.326z" fill="#6bdddd"/></svg>