<svg height="512" viewBox="0 0 512 512" width="512" xmlns="http://www.w3.org/2000/svg"><g id="filled_outline" data-name="filled outline"><path d="m311.754 370.831-25.8 17.2a54 54 0 0 1 -59.908 0l-25.8-17.2a144.278 144.278 0 0 1 -64.246-120.045v-106.786c0-66.274 53.726-112 120-112 66.274 0 120 45.726 120 112v106.786a144.278 144.278 0 0 1 -64.246 120.045z" fill="#fbb540"/><path d="m328 352 8 56 48 32 104 24v24h-464v-24l104-24 48-32 8-56z" fill="#fbb540"/><path d="m200 240h-16a77.5 77.5 0 0 1 -47.8-16.583l-5.157-4.069a8 8 0 1 1 9.91-12.561l5.157 4.068a61.428 61.428 0 0 0 37.89 13.145h16a8 8 0 0 1 0 16z" fill="#5e8569"/><path d="m328 240h-16a8 8 0 0 1 0-16h16a61.428 61.428 0 0 0 37.888-13.145l5.157-4.068a8 8 0 1 1 9.91 12.561l-5.157 4.069a77.5 77.5 0 0 1 -47.798 16.583z" fill="#5e8569"/><path d="m281.762 400.272a89.652 89.652 0 0 0 62.848-72.24 152.68 152.68 0 0 0 -14.343-91.5l-4.8-9.6a77.666 77.666 0 0 0 -69.467-42.932 77.666 77.666 0 0 0 -69.466 42.932l-4.8 9.6a152.68 152.68 0 0 0 -14.343 91.5 89.652 89.652 0 0 0 62.848 72.24 89.661 89.661 0 0 0 51.523 0z" fill="#99d8aa"/><path d="m280 280a7.974 7.974 0 0 1 -5.657-2.343l-8-8a8 8 0 0 1 11.314-11.314l8 8a8 8 0 0 1 -5.657 13.657z" fill="#85bc94"/><path d="m232 280a8 8 0 0 1 -5.657-13.657l8-8a8 8 0 1 1 11.314 11.314l-8 8a7.974 7.974 0 0 1 -5.657 2.343z" fill="#85bc94"/><path d="m272 352h-32a8 8 0 0 1 -8-8v-40h48v40a8 8 0 0 1 -8 8z" fill="#cdcdcd"/><path d="m316 464a68.077 68.077 0 0 1 -68-68v-12a8 8 0 0 1 16 0v12a52 52 0 0 0 104 0 68.077 68.077 0 0 1 68-68h52a8 8 0 0 1 0 16h-52a52.059 52.059 0 0 0 -52 52 68.077 68.077 0 0 1 -68 68z" fill="#c0f5f9"/><path d="m136 248a32 32 0 0 1 -32-32v-16a32 32 0 0 1 32-32z" fill="#ea9d2d"/><path d="m376 248a32 32 0 0 0 32-32v-16a32 32 0 0 0 -32-32z" fill="#ea9d2d"/><path d="m312 328a8 8 0 0 1 -8-8v-29.877a69.124 69.124 0 0 0 -7.26-30.755l-.973-1.946a69.021 69.021 0 0 0 -39.767-34.487 69.023 69.023 0 0 0 -39.767 34.486l-.973 1.948a69.117 69.117 0 0 0 -7.26 30.754v29.877a8 8 0 0 1 -16 0v-29.877a85.2 85.2 0 0 1 8.949-37.91l.974-1.948a85.05 85.05 0 0 1 51.811-43.387 8 8 0 0 1 4.532 0 85.048 85.048 0 0 1 51.811 43.388l.974 1.946a85.208 85.208 0 0 1 8.949 37.911v29.877a8 8 0 0 1 -8 8z" fill="#85bc94"/><path d="m264 384h-16l-8-32h32z" fill="#a8a8a8"/><path d="m277.657 258.343a8 8 0 0 0 -11.314 11.314l8 8a8 8 0 0 0 11.314-11.314z"/><path d="m234.343 258.343-8 8a8 8 0 0 0 11.314 11.314l8-8a8 8 0 1 0 -11.314-11.314z"/><path d="m489.8 456.205-102.578-23.672-10.111-6.74a67.579 67.579 0 0 0 6.889-29.793 52.059 52.059 0 0 1 52-52h52a8 8 0 0 0 0-16h-52a68.077 68.077 0 0 0 -68 68 51.685 51.685 0 0 1 -4.36 20.812l-20.227-13.484-5.2-36.381a97.845 97.845 0 0 0 8.384-16.226 152.109 152.109 0 0 0 37.33-95.513 40.067 40.067 0 0 0 32.073-39.208v-16a40.068 40.068 0 0 0 -32-39.195v-16.805c0-33.853-13.415-64.67-37.771-86.772-23.59-21.428-55.629-33.228-90.229-33.228s-66.629 11.8-90.229 33.226c-24.357 22.114-37.771 52.931-37.771 86.774v16.805a40.068 40.068 0 0 0 -32 39.195v16a40.067 40.067 0 0 0 32.072 39.208 152.109 152.109 0 0 0 37.33 95.513 97.845 97.845 0 0 0 8.384 16.226l-5.2 36.381-43.809 29.205-102.577 23.672a8 8 0 0 0 -6.2 7.795v24a8 8 0 0 0 8 8h464a8 8 0 0 0 8-8v-24a8 8 0 0 0 -6.2-7.795zm-105.8-278.834a24.042 24.042 0 0 1 16 22.629v16a24.042 24.042 0 0 1 -16 22.629zm-256 61.258a24.042 24.042 0 0 1 -16-22.629v-16a24.042 24.042 0 0 1 16-22.629zm227.032 191.671a51.962 51.962 0 0 1 -88.67-18.8 97.172 97.172 0 0 0 58.112-27.6l3.606 25.234a8 8 0 0 0 3.482 5.524zm12.968-182.3v2.79a136.157 136.157 0 0 1 -13.695 59.543 159.53 159.53 0 0 0 -14.019-71.333 77.692 77.692 0 0 0 27.714-10.188zm-224-104c0-29.275 11.552-55.885 32.526-74.928 20.65-18.747 48.874-29.072 79.474-29.072s58.831 10.325 79.474 29.074c20.974 19.033 32.526 45.643 32.526 74.926v65.189l-2.112 1.666a61.461 61.461 0 0 1 -33.044 12.945l-.223-.445a85.664 85.664 0 0 0 -153.242 0l-.223.445a61.461 61.461 0 0 1 -33.044-12.945l-2.112-1.666zm13.7 166.334a136.141 136.141 0 0 1 -13.7-59.544v-21.978a77.69 77.69 0 0 0 27.715 10.188 159.522 159.522 0 0 0 -14.015 71.334zm31.194-70.223 4.8-9.6a69.666 69.666 0 0 1 124.622 0l4.8 9.6a143.92 143.92 0 0 1 13.592 86.7 81.625 81.625 0 0 1 -72.708 68.845v-3.656a8 8 0 0 0 7.761-6.06l6.846-27.385a16.01 16.01 0 0 0 9.393-14.555v-40a8 8 0 0 0 -8-8h-48a8 8 0 0 0 -8 8v40a16.011 16.011 0 0 0 9.393 14.555l6.846 27.385a8 8 0 0 0 7.761 6.06v3.656a81.625 81.625 0 0 1 -72.7-68.841 143.92 143.92 0 0 1 13.589-86.704zm51.106 103.889v-32h32l.008 32zm21.754 16-4 16h-3.508l-4-16zm218.246 120h-448v-9.636l97.8-22.564a8 8 0 0 0 2.639-1.139l48-32a8 8 0 0 0 3.482-5.524l3.606-25.234a97.107 97.107 0 0 0 62.36 27.961 67.961 67.961 0 0 0 118.555 27.383l11.121 7.414a8 8 0 0 0 2.637 1.139l97.8 22.564z"/><path d="m200 328a8 8 0 0 0 8-8v-29.877a69.117 69.117 0 0 1 7.26-30.754l.973-1.948a69.023 69.023 0 0 1 39.767-34.486 69.021 69.021 0 0 1 39.767 34.487l.973 1.946a69.124 69.124 0 0 1 7.26 30.755v29.877a8 8 0 0 0 16 0v-29.877a85.208 85.208 0 0 0 -8.949-37.911l-.974-1.946a85.048 85.048 0 0 0 -51.811-43.388 8 8 0 0 0 -4.532 0 85.05 85.05 0 0 0 -51.811 43.387l-.974 1.948a85.2 85.2 0 0 0 -8.949 37.91v29.877a8 8 0 0 0 8 8z"/></g></svg>