<svg id="Capa_1" enable-background="new 0 0 512 512" height="512" viewBox="0 0 512 512" width="512" xmlns="http://www.w3.org/2000/svg"><g><g><g><g><path d="m272.431 187.932v34.074h-146.98v-40.382c0-19.589 15.889-35.478 35.478-35.478h22.16c11.939 0 23.326-5.054 31.327-13.921l11.312-12.754c27.339 10.709 46.703 37.334 46.703 68.461z" fill="#6e4848"/></g><g><path d="m225.728 119.471-9.156 10.323c17.361 13.446 28.545 34.488 28.545 58.138v34.074h27.313v-34.074c.001-31.127-19.363-57.752-46.702-68.461z" fill="#633c3e"/></g><g><path d="m31.305 504.593v-63.388c0-24.276 14.551-46.188 36.926-55.605l130.71-56.83 131.748 56.469c21.819 9.669 35.888 31.291 35.888 55.157v64.197" fill="#c2ddff"/></g><g><path d="m198.928 426.527c39.441 0 72.813-26.01 83.886-61.802l.002-.005-83.875-35.95-83.749 36.412v.007c11.224 35.553 44.483 61.338 83.736 61.338z" fill="#a4ccff"/></g><g><path d="m198.941 389.298c-25.541 0-46.247-20.705-46.247-46.247v-37.819h92.493v37.819c0 25.541-20.705 46.247-46.246 46.247z" fill="#f7d4ad"/></g><g><path d="m152.694 322.369c12.628 10.238 28.71 16.381 46.234 16.381 17.535 0 33.628-6.151 46.259-16.401v-17.117h-92.494v17.137z" fill="#ecbd83"/></g><g><path d="m171.539 190.042c16.604 16.015 39.178 25.859 64.059 25.859 12.353 0 24.129-2.42 34.902-6.835 1.906 5.443 2.006 10.271 1.906 12.942v28.327c0 40.583-32.895 73.477-73.478 73.477s-73.477-32.895-73.477-73.477v-28.327c2.656.038 7.988-.247 13.746-3.242 4.773-2.483 7.77-5.752 9.348-7.757" fill="#f7d4ad"/></g></g><g><path d="m385.678 7.593c-52.476 0-95.016 42.54-95.016 95.016 0 31.459 15.293 59.342 38.845 76.635-.915 3.49-2.045 7.101-3.468 10.809-4.159 10.837-9.678 19.749-15.28 26.89-5.397 6.88 1.46 16.516 9.757 13.753 9.599-3.197 20.268-8.089 30.908-15.606 8.391-5.929 15.131-12.344 20.51-18.458 4.488.65 9.075.993 13.744.993 52.476 0 95.016-42.54 95.016-95.016s-42.54-95.016-95.016-95.016z" fill="#fee07d"/></g><g><path d="m385.678 7.593c-5.895 0-11.662.541-17.26 1.568 44.234 8.118 77.756 46.866 77.756 93.447 0 52.476-42.54 95.016-95.016 95.016-4.668 0-9.256-.343-13.744-.993-5.379 6.113-12.119 12.529-20.51 18.458-2.592 1.831-5.185 3.504-7.764 5.037-1.713 6.275 4.306 12.924 11.376 10.569 9.599-3.197 20.268-8.089 30.908-15.606 8.391-5.929 15.131-12.344 20.51-18.458 4.488.65 9.075.993 13.744.993 52.476 0 95.016-42.54 95.016-95.016s-42.54-95.015-95.016-95.015z" fill="#ffc269"/></g><g><path d="m290.043 275.928c0 9.727-7.885 17.612-17.612 17.612s-17.612-7.885-17.612-17.612c0-16.942 17.612-31.569 17.612-31.569s17.612 13.923 17.612 31.569z" fill="#c2ddff"/></g><g><g><circle cx="385.678" cy="157.556" fill="#ff6b61" r="7.5"/></g><g><g><g><path d="m385.678 139.467c-4.142 0-7.5-3.357-7.5-7.5v-28.255c0-4.143 3.358-7.5 7.5-7.5 5.402 0 10.429-2.161 14.155-6.086 3.723-3.921 5.619-9.064 5.337-14.482-.527-10.15-8.911-18.263-19.086-18.468-.134-.002-.268-.004-.4-.004-9.717 0-17.993 7.152-19.337 16.789-.125.895-.188 1.813-.188 2.731 0 4.143-3.358 7.5-7.5 7.5s-7.5-3.357-7.5-7.5c0-1.609.112-3.226.332-4.806 2.414-17.288 17.426-30.024 34.896-29.707 18 .362 32.832 14.72 33.764 32.687.497 9.566-2.855 18.654-9.439 25.588-4.742 4.995-10.892 8.435-17.533 9.924v21.589c-.001 4.142-3.359 7.5-7.501 7.5z" fill="#ff6b61"/></g></g></g></g></g><g><path d="m333.64 378.257-47.818-20.493c-.043-.019-.085-.037-.129-.055l-33.026-14.154c.002-.198.018-.397.018-.594v-32.164c3.945-3.498 7.521-7.358 10.701-11.541 2.809 1.089 5.857 1.692 9.045 1.692 13.847 0 25.112-11.266 25.112-25.112 0-16.456-12.01-29.68-17.639-34.975l.03-53.021c0-16.607-4.995-32.571-14.444-46.168-9.228-13.276-22.032-23.4-37.03-29.275-2.929-1.148-6.26-.346-8.347 2.007l-11.269 12.703c-6.559 7.272-15.945 11.443-25.75 11.443h-22.16c-23.699 0-42.98 19.281-42.98 42.98v40.38.005s0 .003 0 .005v28.32c0 23.328 9.888 45.2 27.24 60.573v32.146c0 .3.023.602.028.902l-32.999 14.346c-.005.002-.01.004-.016.007l-46.88 20.38c-25.224 10.606-41.522 35.145-41.522 62.515v63.39c0 4.143 3.358 7.5 7.5 7.5s7.5-3.357 7.5-7.5v-63.39c0-21.316 12.693-40.427 32.42-48.723l39.663-17.243c4.662 11.204 11.492 21.539 20.03 30.237 1.469 1.496 3.41 2.246 5.353 2.246 1.896 0 3.793-.715 5.253-2.147 2.956-2.901 3-7.65.099-10.606-7.257-7.393-13.045-16.185-16.975-25.711l23.034-10.014c6.921 21.969 27.481 37.561 51.262 37.561 23.944 0 44.542-15.722 51.35-37.854l23.084 9.893c-5.473 13.462-14.663 25.439-26.364 34.201-13.962 10.456-30.589 15.982-48.085 15.982-12.604 0-24.668-2.837-35.856-8.434-3.705-1.851-8.209-.351-10.063 3.354-1.853 3.704-.352 8.209 3.353 10.063 13.291 6.647 27.612 10.018 42.566 10.018 20.763 0 40.5-6.562 57.077-18.976 13.795-10.331 24.646-24.438 31.156-40.301l40.487 17.352c19.091 8.45 31.426 27.406 31.426 48.291v64.2c0 4.143 3.358 7.5 7.5 7.5s7.5-3.357 7.5-7.5v-64.2c0-26.815-15.84-51.153-40.435-62.041zm-51.096-102.422c0 5.576-4.536 10.112-10.112 10.112s-10.112-4.536-10.112-10.112c0-7.822 5.531-15.903 10.188-21.13 4.322 4.709 10.036 12.557 10.036 21.13zm-149.589-25.595v-21.524c3.389-.669 6.667-1.812 9.693-3.389 4.579-2.374 8.542-5.657 11.782-9.758 2.568-3.25 2.015-7.967-1.235-10.534-3.25-2.568-7.966-2.015-10.534 1.235-1.913 2.421-4.24 4.353-6.932 5.749-.898.468-1.826.86-2.773 1.192v-31.681c0-15.429 12.552-27.98 27.98-27.98h22.16c14.045 0 27.491-5.977 36.931-16.443l7.698-8.678c22.769 10.987 37.211 33.781 37.211 59.411v15.231c-9.36 3.465-19.211 5.239-29.34 5.239-22.058 0-42.959-8.438-58.855-23.76-2.983-2.873-7.73-2.784-10.605.195-2.875 2.982-2.787 7.73.195 10.605 18.706 18.029 43.305 27.959 69.265 27.959 10.038 0 19.858-1.468 29.296-4.371.029.527.013 22.059.013 22.059-5.56 5.41-17.585 18.946-17.585 34.838 0 5.215 1.599 10.063 4.331 14.082-3.232 4.295-6.979 8.18-11.192 11.59-11.691 9.487-26.441 14.713-41.534 14.713-15.087 0-29.827-5.219-41.51-14.698-15.544-12.59-24.46-31.282-24.46-51.282zm65.99 131.47c-19.55 0-36.083-14.609-38.457-33.991-.195-1.573-.293-3.175-.293-4.759v-21.623c11.81 6.425 25.153 9.883 38.73 9.883 13.586 0 26.941-3.464 38.76-9.898v21.638c0 1.506-.09 3.029-.27 4.545-2.265 19.5-18.803 34.205-38.47 34.205z"/><path d="m98.139 454.104c-4.142 0-7.5 3.357-7.5 7.5v42.896c0 4.143 3.358 7.5 7.5 7.5s7.5-3.357 7.5-7.5v-42.896c0-4.142-3.358-7.5-7.5-7.5z"/><path d="m299.94 454.104c-4.142 0-7.5 3.357-7.5 7.5v42.896c0 4.143 3.358 7.5 7.5 7.5s7.5-3.357 7.5-7.5v-42.896c0-4.142-3.357-7.5-7.5-7.5z"/><path d="m446.168 19.74c-3.343-2.447-8.035-1.721-10.482 1.622-2.446 3.343-1.72 8.035 1.623 10.481 22.471 16.446 35.886 42.866 35.886 70.672 0 48.256-39.259 87.516-87.516 87.516-4.213 0-8.476-.308-12.668-.916-2.512-.362-5.032.565-6.706 2.469-5.736 6.519-12.198 12.334-19.207 17.287-8.838 6.244-18.578 11.161-28.95 14.615-.289.095-.961.318-1.534-.494-.539-.766-.143-1.271.047-1.514 6.906-8.803 12.417-18.503 16.381-28.832 1.427-3.719 2.679-7.62 3.721-11.595.78-2.976-.336-6.126-2.816-7.947-22.407-16.451-35.784-42.84-35.784-70.589.001-48.255 39.26-87.515 87.516-87.515 9.438 0 18.717 1.491 27.581 4.433 3.931 1.308 8.176-.824 9.48-4.756s-.825-8.176-4.756-9.48c-10.389-3.449-21.258-5.197-32.305-5.197-56.527 0-102.516 45.988-102.516 102.516 0 30.741 14.013 60.056 37.73 79.443-.572 1.81-1.191 3.585-1.854 5.313-3.428 8.931-8.198 17.325-14.179 24.949-4.469 5.696-4.673 13.496-.509 19.409 3.136 4.452 8.105 6.942 13.305 6.941 1.738 0 3.502-.278 5.232-.854 11.768-3.919 22.826-9.503 32.866-16.597 6.883-4.863 13.299-10.456 19.115-16.659 3.597.378 7.218.569 10.81.569 56.527 0 102.516-45.988 102.516-102.516 0-32.57-15.711-63.514-42.027-82.774z"/><circle cx="385.679" cy="157.463" r="7.5"/><path d="m420.152 74.773c-.932-17.967-15.763-32.324-33.764-32.687-.237-.005-.471-.008-.707-.008-17.176 0-31.81 12.661-34.19 29.715-.221 1.582-.333 3.199-.333 4.806 0 4.143 3.358 7.5 7.5 7.5s7.5-3.357 7.5-7.5c0-.915.063-1.835.189-2.732 1.363-9.768 9.812-16.952 19.738-16.784 10.176.205 18.56 8.317 19.086 18.468.281 5.418-1.615 10.562-5.338 14.482-3.726 3.925-8.753 6.086-14.155 6.086-4.142 0-7.5 3.357-7.5 7.5v28.255c0 4.143 3.358 7.5 7.5 7.5s7.5-3.357 7.5-7.5v-21.589c6.642-1.489 12.791-4.929 17.533-9.923 6.585-6.934 9.937-16.021 9.441-25.589z"/></g></g></svg>