<svg id="Capa_1" enable-background="new 0 0 512 512" height="512" viewBox="0 0 512 512" width="512" xmlns="http://www.w3.org/2000/svg"><g><path d="m412.123 31.304c-2.871-1.275-71.06-31.304-156.123-31.304s-153.252 30.029-156.123 31.304c-5.391 2.417-8.877 7.778-8.877 13.696v407.894h165 165v-407.894c0-5.918-3.486-11.279-8.877-13.696z" fill="#e0f4fe"/><path d="m421 45c0-5.918-3.486-11.279-8.877-13.696-2.871-1.275-71.06-31.304-156.123-31.304v452.894h165z" fill="#b7e4f8"/><path d="m256 392c-120.615 0-217.357 90.322-221.371 94.16h221.371 221.371c-4.014-3.838-100.756-94.16-221.371-94.16z" fill="#704c55"/><path d="m256 392v94.16h221.371c-4.014-3.838-100.756-94.16-221.371-94.16z" fill="#5a344b"/><g fill="#704c55"><path d="m346 181h-90-90c-8.291 0-15 6.709-15 15s6.709 15 15 15h90 90c8.291 0 15-6.709 15-15s-6.709-15-15-15z"/><path d="m316 241h-60-60c-8.291 0-15 6.709-15 15s6.709 15 15 15h60 60c8.291 0 15-6.709 15-15s-6.709-15-15-15z"/><path d="m286 301h-30-30c-8.291 0-15 6.709-15 15s6.709 15 15 15h30 30c8.291 0 15-6.709 15-15s-6.709-15-15-15z"/></g><g fill="#5a344b"><path d="m361 196c0-8.291-6.709-15-15-15h-90v30h90c8.291 0 15-6.709 15-15z"/><path d="m331 256c0-8.291-6.709-15-15-15h-60v30h60c8.291 0 15-6.709 15-15z"/><path d="m301 316c0-8.291-6.709-15-15-15h-30v30h30c8.291 0 15-6.709 15-15z"/></g><circle cx="256" cy="106" fill="#704c55" r="45"/><path d="m301 106c0-24.814-20.186-45-45-45v90c24.814 0 45-20.186 45-45z" fill="#5a344b"/><path d="m497 482h-241-241c-8.291 0-15 6.709-15 15s6.709 15 15 15h241 241c8.291 0 15-6.709 15-15s-6.709-15-15-15z" fill="#97de3d"/><path d="m512 497c0-8.291-6.709-15-15-15h-241v30h241c8.291 0 15-6.709 15-15z" fill="#59c36a"/></g></svg>