<svg id="Layer_1" enable-background="new 0 0 512.072 512.072" height="512" viewBox="0 0 512.072 512.072" width="512" xmlns="http://www.w3.org/2000/svg" xmlns:xlink="http://www.w3.org/1999/xlink"><linearGradient id="SVGID_1_" gradientUnits="userSpaceOnUse" x1="0" x2="512.072" y1="256.036" y2="256.036"><stop offset="0" stop-color="#00f2fe"/><stop offset=".0208" stop-color="#03effe"/><stop offset=".2931" stop-color="#24d2fe"/><stop offset=".5538" stop-color="#3cbdfe"/><stop offset=".7956" stop-color="#4ab0fe"/><stop offset="1" stop-color="#4facfe"/></linearGradient><path d="m414.039 350.201c-.282 8.212-2.779 16.719-7.635 26.01-.065.124-.131.247-.198.369l-13.508 24.577c-3.315 6.459-10.043 10.879-17.804 10.879h-26.681c-16.883 0-31.293 12.794-33.521 29.761l-4.104 31.251c-.573 4.36-2.566 8.41-5.673 11.523-2.805 2.811-29.395 27.465-98.286 27.465s-95.481-24.653-98.287-27.465c-3.106-3.113-5.101-7.163-5.673-11.523l-4.103-31.25c-2.228-16.967-16.639-29.762-33.521-29.762h-26.673c-7.296 0-14.013-3.973-17.527-10.367 0 0-13.922-25.334-13.986-25.457-7.822-14.965-9.012-32.589-3.266-48.354 3.305-9.066 8.774-17.1 15.796-23.462-9.59-27.116-13.96-57.392-13.96-78.116 0-25.105 5.941-49.684 17.659-73.05 10.897-21.731 26.259-41.418 45.657-58.513 38.511-33.937 88.759-53.502 137.863-53.682.004 0 21.01-.021 29.38 1.214 10.928 1.611 18.48 11.776 16.869 22.703-1.466 9.938-10.007 17.086-19.761 17.086-.972 0-17.025-1.003-26.331-1.003-84.442 0-161.337 69.526-161.337 145.244 0 19.896 5.25 52.599 16.777 77.389 2.303 4.951 2.48 10.63.492 15.716s-5.971 9.138-11.021 11.214c-4.938 2.03-8.668 5.922-10.504 10.957-1.913 5.249-1.538 10.912 1.053 15.97l7.975 14.511h14.846c36.888 0 68.349 27.752 73.182 64.555l2.959 22.545c8.49 4.713 28.55 12.9 65.443 12.9s56.953-8.188 65.442-12.9l2.96-22.546c4.831-36.802 36.292-64.554 73.181-64.554h14.847l7.983-14.525c2.532-4.888 2.979-7.532 3.019-8.68.261-7.629-4.919-15.164-12.596-18.321-10.216-4.2-15.093-15.887-10.893-26.103 4.201-10.216 15.888-15.09 26.104-10.893 23.181 9.532 38.196 32.312 37.362 56.687zm-233.584 32.645 28.617 15.19 28.617-15.19c15.773 0-16.099-59.561-16.099-59.561-6.914-6.999-18.124-6.999-25.037 0 0 0-31.871 59.561-16.098 59.561zm145.617-121.015c0-9.8-6.359-12.713-15.493-12.793-11.13-.098-26.381 4.274-39.271 4.274h-14.962c-15.658.143-26.273 1.931-26.273 18.735 0 21.74 41.136 38.989 64.604 38.989s31.395-27.465 31.395-49.205zm-169.263-8.45h-15.973c-11.877 0-25.736-5.345-36.575-5.345-10.984 0-18.189 2.023-18.189 12.594 0 21.401 7.927 49.406 31.396 49.406s64.604-16.98 64.604-38.381c0-16.184-10.16-18.045-25.263-18.274zm355.263-129.345c0 9.474-6.646 17.647-15.921 19.58l-26.14 5.445c-1.603 5.251-3.724 10.366-6.307 15.216.057.088.112.177.167.267l14.209 22.972c4.982 8.055 3.632 18.5-3.235 25.022-6.869 6.522-17.369 7.333-25.156 1.942l-21.388-14.805c-4.861 2.587-9.969 4.702-15.204 6.3l-5.445 26.14c-1.933 9.274-10.106 15.921-19.58 15.921s-17.647-6.646-19.58-15.921l-5.445-26.14c-5.25-1.603-10.365-3.723-15.214-6.306l-22.72 15.042c-7.932 5.25-18.46 4.189-25.184-2.533-6.724-6.725-7.783-17.254-2.533-25.184l15.041-22.719c-2.588-4.864-4.706-9.977-6.305-15.215l-26.14-5.445c-9.274-1.933-15.921-10.106-15.921-19.58s6.646-17.647 15.921-19.58l26.14-5.445c1.603-5.25 3.723-10.365 6.306-15.214l-15.042-22.72c-5.25-7.93-4.19-18.459 2.533-25.184 6.726-6.725 17.255-7.785 25.184-2.533l22.719 15.041c4.864-2.588 9.977-4.706 15.215-6.305l5.445-26.14c1.933-9.274 10.106-15.921 19.58-15.921s17.647 6.646 19.58 15.921l5.445 26.14c5.251 1.603 10.367 3.724 15.216 6.307l21.898-14.161c7.918-5.121 18.335-4.015 25.003 2.651 6.667 6.668 7.771 17.086 2.651 25.003l-14.16 21.897c2.589 4.865 4.707 9.978 6.306 15.217l26.14 5.445c9.274 1.934 15.921 10.108 15.921 19.582zm-73.311 0c-3.101-3.885-5.498-8.38-6.994-13.305-.854-2.812-1.993-5.558-3.383-8.161-2.429-4.548-3.915-9.43-4.471-14.377-4.947-.555-9.829-2.042-14.379-4.472-2.601-1.388-5.347-2.526-8.158-3.381-4.925-1.497-9.42-3.894-13.305-6.994-3.885 3.101-8.38 5.498-13.305 6.994-2.812.854-5.558 1.993-8.161 3.383-4.549 2.429-9.432 3.916-14.38 4.471-.553 4.949-2.04 9.831-4.469 14.379-1.388 2.601-2.526 5.347-3.381 8.158-1.497 4.925-3.894 9.42-6.994 13.305 3.101 3.885 5.498 8.38 6.994 13.305.854 2.812 1.993 5.558 3.383 8.161 2.429 4.549 3.916 9.432 4.471 14.379 4.95.554 9.83 2.04 14.379 4.47 2.601 1.388 5.347 2.526 8.158 3.381 4.925 1.497 9.42 3.894 13.305 6.994 3.885-3.101 8.38-5.498 13.305-6.994 2.812-.854 5.558-1.993 8.161-3.383 4.548-2.429 9.43-3.915 14.377-4.471.555-4.947 2.042-9.829 4.472-14.379 1.388-2.601 2.526-5.347 3.381-8.158 1.497-4.925 3.894-9.42 6.994-13.305zm-50.689-20c-11.046 0-20 8.954-20 20s8.954 20 20 20 20-8.954 20-20-8.954-20-20-20z" fill="url(#SVGID_1_)"/></svg>