<svg height="511pt" viewBox="1 -48 511.99899 511" width="511pt" xmlns="http://www.w3.org/2000/svg"><path d="m296.070312 8.066406c61.945313 0 112.195313 50.25 112.195313 112.195313 0 61.949219-50.246094 112.195312-112.195313 112.195312-61.949218 0-112.195312-50.246093-112.195312-112.195312s50.246094-112.195313 112.195312-112.195313zm0 0" fill="#95e8c8"/><path d="m264.011719 120.261719c0-47.8125 29.984375-88.542969 72.128906-104.691407-12.460937-4.773437-25.933594-7.503906-40.070313-7.503906-61.949218 0-112.195312 50.25-112.195312 112.195313 0 61.949219 50.246094 112.195312 112.195312 112.195312 14.136719 0 27.609376-2.726562 40.070313-7.5-42.144531-16.152343-72.128906-56.882812-72.128906-104.695312zm0 0" fill="#06ccab"/><path d="m360.179688 104.234375h-48.082032v-48.082031h-32.054687v48.082031h-48.085938v32.054687h48.085938v48.085938h32.054687v-48.085938h48.082032zm0 0" fill="#e9edf5"/><path d="m464.363281 288.554688c22.117188 0 40.066407 17.953124 40.066407 40.070312s-17.949219 40.070312-40.066407 40.070312c-22.121093 0-40.070312-17.953124-40.070312-40.070312 0-5.691406 1.199219-11.140625 3.367187-16.027344h-99.535156l-1.28125-.082031c.800781-7.691406 1.28125-15.785156 1.28125-23.960937 0-8.175782-.402344-16.1875-1.28125-23.882813l1.28125-.160156h99.535156c-2.164062-4.886719-3.367187-10.335938-3.367187-16.027344 0-22.117187 17.949219-40.070313 40.070312-40.070313 22.117188 0 40.066407 17.953126 40.066407 40.070313s-17.949219 40.070313-40.066407 40.070313zm0 0" fill="#e9edf5"/><path d="m328.125 288.554688c0 8.175781-.480469 16.269531-1.28125 23.960937-5.933594 54.898437-31.816406 96.246094-62.832031 96.246094h-192.332031c35.421874 0 64.109374-53.851563 64.109374-120.207031 0-66.355469-28.6875-120.210938-64.109374-120.210938h120.207031l2.324219-1.039062c17.792968 38.464843 56.738281 65.152343 101.859374 65.152343 8.253907 0 16.265626-.882812 23.960938-2.566406l.078125.402344c3.125 10.578125 5.449219 22.117187 6.734375 34.378906.878906 7.695313 1.28125 15.707031 1.28125 23.882813zm0 0" fill="#ff6c52"/><path d="m71.679688 408.761719c-35.421876 0-64.113282-53.851563-64.113282-120.207031 0-66.355469 28.691406-120.210938 64.113282-120.210938 35.421874 0 64.109374 53.855469 64.109374 120.210938 0 66.355468-28.6875 120.207031-64.109374 120.207031zm0 0" fill="#ff6c52"/><path d="m191.886719 288.554688c0-66.355469-28.6875-120.210938-64.109375-120.210938h-56.097656c35.421874 0 64.109374 53.855469 64.109374 120.210938 0 66.355468-28.6875 120.210937-64.109374 120.210937h56.097656c35.421875-.003906 64.109375-53.855469 64.109375-120.210937zm0 0" fill="#ff432e"/><path d="m71.679688 376.261719v-15.136719c9.984374 0 24.488281-28.269531 24.488281-72.570312 0-44.300782-14.503907-72.570313-24.488281-72.570313-9.984376 0-24.488282 28.269531-24.488282 72.570313h-15.136718c0-22.339844 3.527343-43.457032 9.925781-59.46875 7.28125-18.210938 17.828125-28.238282 29.699219-28.238282 11.867187 0 22.414062 10.027344 29.695312 28.238282 6.402344 16.011718 9.929688 37.128906 9.929688 59.46875 0 22.339843-3.527344 43.457031-9.929688 59.46875-7.28125 18.210937-17.828125 28.238281-29.695312 28.238281zm0 0" fill="#fff"/><path d="m143.804688 369.140625h80.140624v15.136719h-80.140624zm0 0" fill="#fff"/><path d="m239.972656 64.609375h16.027344v15.136719h-16.027344zm0 0" fill="#fff"/><path d="m336.140625 160.777344h16.027344v15.136718h-16.027344zm0 0" fill="#fff"/><g fill="#231f20"><path d="m490.101562 288.554688c13.164063-8.484376 21.898438-23.277344 21.898438-40.070313 0-26.265625-21.371094-47.636719-47.636719-47.636719-26.269531 0-47.640625 21.371094-47.640625 47.636719 0 2.867187.25 5.691406.75 8.460937h-83.960937c-1.019531-7.382812-2.421875-14.613281-4.191407-21.628906 23.25-6.726562 44.207032-20.519531 59.625-39.4375 17.339844-21.277344 26.886719-48.128906 26.886719-75.617187 0-66.035157-53.722656-119.761719-119.761719-119.761719-28.136718 0-55.480468 9.957031-76.996093 28.035156l9.738281 11.589844c18.792969-15.792969 42.675781-24.492188 67.253906-24.492188 57.691406 0 104.628906 46.9375 104.628906 104.628907 0 24.011719-8.339843 47.46875-23.480468 66.050781-14.945313 18.339844-35.824219 31.191406-58.800782 36.1875-7.253906 1.582031-14.769531 2.386719-22.347656 2.386719-40.628906 0-77.914062-23.847657-94.992187-60.769531-6.390625-13.789063-9.632813-28.542969-9.632813-43.855469 0-24.578125 8.695313-48.464844 24.488282-67.257813l-11.585938-9.738281c-18.082031 21.515625-28.039062 48.859375-28.039062 76.996094 0 13.988281 2.371093 27.570312 7.050781 40.515625h-111.675781c-40.195313 0-71.679688 56.125-71.679688 127.777344 0 71.652343 31.484375 127.777343 71.679688 127.777343h136.238281v-15.136719h-101.878907c22.40625-21.367187 37.320313-63.328124 37.320313-112.640624s-14.914063-91.273438-37.320313-112.640626h84.007813c20.582031 39.132813 61.542969 64.109376 106.023437 64.109376 6.214844 0 12.398438-.480469 18.464844-1.421876 2.203125 8.632813 3.816406 17.644532 4.789063 26.933594.816406 7.136719 1.234375 14.878906 1.234375 23.019532 0 7.46875-.417969 15.269531-1.242188 23.148437-5.511718 51.019531-29.285156 89.492187-55.304687 89.492187h-32.054688v15.136719h32.054688c34.875 0 63.804687-42.355469 70.359375-103.03125.875-8.429687 1.320312-16.753906 1.320312-24.746093 0-5.683594-.191406-11.203126-.570312-16.472657h104.164062l-4.707031-10.632812c-1.804687-4.074219-2.71875-8.433594-2.71875-12.960938 0-17.921875 14.582031-32.503906 32.503906-32.503906s32.5 14.582031 32.5 32.503906c0 17.917969-14.578125 32.5-32.5 32.5h-64.113281v15.136719h64.113281c17.921875 0 32.5 14.578125 32.5 32.5s-14.578125 32.5-32.5 32.5-32.503906-14.578125-32.503906-32.5c0-4.527344.914063-8.890625 2.71875-12.964844l4.707031-10.632812h-79.105468v15.136718h57.292968c-.5 2.769532-.75 5.59375-.75 8.460938 0 26.269531 21.371094 47.636719 47.640625 47.636719 26.265625 0 47.636719-21.367188 47.636719-47.636719 0-16.792969-8.734375-31.585938-21.898438-40.070312zm-361.878906 0c0 61.058593-25.894531 112.640624-56.542968 112.640624-30.652344 0-56.542969-51.582031-56.542969-112.640624 0-61.058594 25.890625-112.640626 56.542969-112.640626 30.648437 0 56.542968 51.582032 56.542968 112.640626zm0 0"/><path d="m32.054688 304.582031h15.136718v16.027344h-15.136718zm0 0"/><path d="m48.082031 320.609375h15.136719v16.027344h-15.136719zm0 0"/><path d="m48.082031 360.679688h15.136719v16.027343h-15.136719zm0 0"/><path d="m239.972656 369.140625h16.027344v15.136719h-16.027344zm0 0"/><path d="m272.472656 48.582031v48.082031h-48.082031v47.195313h48.082031v48.082031h47.191406v-48.082031h48.085938v-47.195313h-48.085938v-48.082031zm80.140625 63.222657v16.917968h-48.085937v48.082032h-16.917969v-48.082032h-48.082031v-16.917968h48.082031v-48.085938h16.917969v48.085938zm0 0"/><path d="m336.140625 64.609375h16.027344v15.136719h-16.027344zm0 0"/><path d="m239.972656 160.777344h16.027344v15.136718h-16.027344zm0 0"/></g></svg>